<svg width="1920" height="738" viewBox="0 0 1920 738" fill="none" xmlns="http://www.w3.org/2000/svg">
<g clip-path="url(#clip0_409_2125)">
<path d="M178 647C294.532 647 389 552.532 389 436C389 319.468 294.532 225 178 225C61.4679 225 -33 319.468 -33 436C-33 552.532 61.4679 647 178 647Z" fill="#F8F8F8"/>
<path d="M371.5 599C465.112 599 541 523.112 541 429.5C541 335.888 465.112 260 371.5 260C277.888 260 202 335.888 202 429.5C202 523.112 277.888 599 371.5 599Z" fill="#F8F8F8"/>
<path d="M536.5 564C635.635 564 716 483.859 716 385C716 286.141 635.635 206 536.5 206C437.365 206 357 286.141 357 385C357 483.859 437.365 564 536.5 564Z" fill="#F8F8F8"/>
<path d="M694.5 592C793.635 592 874 512.083 874 413.5C874 314.917 793.635 235 694.5 235C595.365 235 515 314.917 515 413.5C515 512.083 595.365 592 694.5 592Z" fill="#F8F8F8"/>
<path d="M720.5 647C837.308 647 932 552.532 932 436C932 319.468 837.308 225 720.5 225C603.692 225 509 319.468 509 436C509 552.532 603.692 647 720.5 647Z" fill="#F8F8F8"/>
<path d="M912.5 599C1006.11 599 1082 523.112 1082 429.5C1082 335.888 1006.11 260 912.5 260C818.888 260 743 335.888 743 429.5C743 523.112 818.888 599 912.5 599Z" fill="#F8F8F8"/>
<path d="M1078 564C1176.86 564 1257 483.859 1257 385C1257 286.141 1176.86 206 1078 206C979.141 206 899 286.141 899 385C899 483.859 979.141 564 1078 564Z" fill="#F8F8F8"/>
<path d="M1236 592C1334.86 592 1415 512.083 1415 413.5C1415 314.917 1334.86 235 1236 235C1137.14 235 1057 314.917 1057 413.5C1057 512.083 1137.14 592 1236 592Z" fill="#F8F8F8"/>
<path d="M1258.5 647C1375.31 647 1470 552.532 1470 436C1470 319.468 1375.31 225 1258.5 225C1141.69 225 1047 319.468 1047 436C1047 552.532 1141.69 647 1258.5 647Z" fill="#F8F8F8"/>
<path d="M1451.5 599C1545.11 599 1621 523.112 1621 429.5C1621 335.888 1545.11 260 1451.5 260C1357.89 260 1282 335.888 1282 429.5C1282 523.112 1357.89 599 1451.5 599Z" fill="#F8F8F8"/>
<path d="M1617 564C1715.86 564 1796 483.859 1796 385C1796 286.141 1715.86 206 1617 206C1518.14 206 1438 286.141 1438 385C1438 483.859 1518.14 564 1617 564Z" fill="#F8F8F8"/>
<path d="M1774.5 592C1873.64 592 1954 512.083 1954 413.5C1954 314.917 1873.64 235 1774.5 235C1675.36 235 1595 314.917 1595 413.5C1595 512.083 1675.36 592 1774.5 592Z" fill="#F8F8F8"/>
<path d="M662.5 720C779.308 720 874 625.532 874 509C874 392.468 779.308 298 662.5 298C545.692 298 451 392.468 451 509C451 625.532 545.692 720 662.5 720Z" fill="#F4F4F4"/>
<path d="M469.5 672C563.112 672 639 596.112 639 502.5C639 408.888 563.112 333 469.5 333C375.888 333 300 408.888 300 502.5C300 596.112 375.888 672 469.5 672Z" fill="#F4F4F4"/>
<path d="M304 637C402.859 637 483 556.635 483 457.5C483 358.365 402.859 278 304 278C205.141 278 125 358.365 125 457.5C125 556.635 205.141 637 304 637Z" fill="#F4F4F4"/>
<path d="M146.5 666C245.635 666 326 585.859 326 487C326 388.141 245.635 308 146.5 308C47.3649 308 -33 388.141 -33 487C-33 585.859 47.3649 666 146.5 666Z" fill="#F4F4F4"/>
<path d="M1454 720C1570.53 720 1665 625.532 1665 509C1665 392.468 1570.53 298 1454 298C1337.47 298 1243 392.468 1243 509C1243 625.532 1337.47 720 1454 720Z" fill="#F4F4F4"/>
<path d="M1261.5 672C1355.11 672 1431 596.112 1431 502.5C1431 408.888 1355.11 333 1261.5 333C1167.89 333 1092 408.888 1092 502.5C1092 596.112 1167.89 672 1261.5 672Z" fill="#F4F4F4"/>
<path d="M1095.5 637C1194.64 637 1275 556.635 1275 457.5C1275 358.365 1194.64 278 1095.5 278C996.365 278 916 358.365 916 457.5C916 556.635 996.365 637 1095.5 637Z" fill="#F4F4F4"/>
<path d="M938 666C1036.86 666 1117 585.859 1117 487C1117 388.141 1036.86 308 938 308C839.141 308 759 388.141 759 487C759 585.859 839.141 666 938 666Z" fill="#F4F4F4"/>
<path d="M1743 720C1859.53 720 1954 625.532 1954 509C1954 392.468 1859.53 298 1743 298C1626.47 298 1532 392.468 1532 509C1532 625.532 1626.47 720 1743 720Z" fill="#F4F4F4"/>
<path d="M1549.5 672C1643.11 672 1719 596.112 1719 502.5C1719 408.888 1643.11 333 1549.5 333C1455.89 333 1380 408.888 1380 502.5C1380 596.112 1455.89 672 1549.5 672Z" fill="#F4F4F4"/>
<path d="M1384.5 637C1483.64 637 1564 556.635 1564 457.5C1564 358.365 1483.64 278 1384.5 278C1285.36 278 1205 358.365 1205 457.5C1205 556.635 1285.36 637 1384.5 637Z" fill="#F4F4F4"/>
<path d="M1226.5 666C1325.64 666 1406 585.859 1406 487C1406 388.141 1325.64 308 1226.5 308C1127.36 308 1047 388.141 1047 487C1047 585.859 1127.36 666 1226.5 666Z" fill="#F4F4F4"/>
<path d="M178 783C294.532 783 389 688.308 389 571.5C389 454.692 294.532 360 178 360C61.4679 360 -33 454.692 -33 571.5C-33 688.308 61.4679 783 178 783Z" fill="#EFEFEF"/>
<path d="M371.5 735C465.112 735 541 658.888 541 565C541 471.112 465.112 395 371.5 395C277.888 395 202 471.112 202 565C202 658.888 277.888 735 371.5 735Z" fill="#EFEFEF"/>
<path d="M536.5 700C635.635 700 716 619.635 716 520.5C716 421.365 635.635 341 536.5 341C437.365 341 357 421.365 357 520.5C357 619.635 437.365 700 536.5 700Z" fill="#EFEFEF"/>
<path d="M694.5 728C793.635 728 874 647.859 874 549C874 450.141 793.635 370 694.5 370C595.365 370 515 450.141 515 549C515 647.859 595.365 728 694.5 728Z" fill="#EFEFEF"/>
<path d="M720.5 783C837.308 783 932 688.308 932 571.5C932 454.692 837.308 360 720.5 360C603.692 360 509 454.692 509 571.5C509 688.308 603.692 783 720.5 783Z" fill="#EFEFEF"/>
<path d="M912.5 735C1006.11 735 1082 658.888 1082 565C1082 471.112 1006.11 395 912.5 395C818.888 395 743 471.112 743 565C743 658.888 818.888 735 912.5 735Z" fill="#EFEFEF"/>
<path d="M1078 700C1176.86 700 1257 619.635 1257 520.5C1257 421.365 1176.86 341 1078 341C979.141 341 899 421.365 899 520.5C899 619.635 979.141 700 1078 700Z" fill="#EFEFEF"/>
<path d="M1236 728C1334.86 728 1415 647.859 1415 549C1415 450.141 1334.86 370 1236 370C1137.14 370 1057 450.141 1057 549C1057 647.859 1137.14 728 1236 728Z" fill="#EFEFEF"/>
<path d="M1258.5 783C1375.31 783 1470 688.308 1470 571.5C1470 454.692 1375.31 360 1258.5 360C1141.69 360 1047 454.692 1047 571.5C1047 688.308 1141.69 783 1258.5 783Z" fill="#EFEFEF"/>
<path d="M1451.5 735C1545.11 735 1621 658.888 1621 565C1621 471.112 1545.11 395 1451.5 395C1357.89 395 1282 471.112 1282 565C1282 658.888 1357.89 735 1451.5 735Z" fill="#EFEFEF"/>
<path d="M1617 700C1715.86 700 1796 619.635 1796 520.5C1796 421.365 1715.86 341 1617 341C1518.14 341 1438 421.365 1438 520.5C1438 619.635 1518.14 700 1617 700Z" fill="#EFEFEF"/>
<path d="M1774.5 728C1873.64 728 1954 647.859 1954 549C1954 450.141 1873.64 370 1774.5 370C1675.36 370 1595 450.141 1595 549C1595 647.859 1675.36 728 1774.5 728Z" fill="#EFEFEF"/>
<path d="M1954 525H-33V737H1954V525Z" fill="#EFEFEF"/>
</g>
<defs>
<clipPath id="clip0_409_2125">
<rect width="1920" height="738" fill="white"/>
</clipPath>
</defs>
</svg>
