<svg width="44" height="44" viewBox="0 0 44 44" fill="none" xmlns="http://www.w3.org/2000/svg">
<path d="M5.5 7.33301V1.83301H9.167V7.33301H14.667V11H9.167V16.5H5.5V11H0V7.33301H5.5ZM11 18.333V12.833H16.5V7.33301H29.333L32.688 11H38.5C39.4717 11.0026 40.4029 11.3898 41.09 12.077C41.7772 12.7641 42.1644 13.6953 42.167 14.667V36.667C42.1641 37.6386 41.7768 38.5695 41.0897 39.2564C40.4026 39.9433 39.4716 40.3304 38.5 40.333H9.167C8.19526 40.3304 7.26408 39.9432 6.57695 39.2561C5.88983 38.5689 5.50264 37.6377 5.5 36.666V18.333H11ZM23.833 34.833C25.6461 34.833 27.4184 34.2954 28.9259 33.2881C30.4334 32.2808 31.6084 30.8491 32.3022 29.1741C32.996 27.499 33.1776 25.6558 32.8239 23.8776C32.4701 22.0994 31.5971 20.466 30.315 19.184C29.033 17.9019 27.3996 17.0289 25.6214 16.6751C23.8432 16.3214 22 16.503 20.3249 17.1968C18.6499 17.8906 17.2182 19.0656 16.2109 20.5731C15.2036 22.0806 14.666 23.8529 14.666 25.666C14.6668 28.097 15.6329 30.4282 17.3518 32.1472C19.0708 33.8661 21.402 34.8322 23.833 34.833ZM17.966 25.666C17.966 26.8264 18.3101 27.9607 18.9548 28.9255C19.5994 29.8904 20.5157 30.6423 21.5878 31.0864C22.6599 31.5305 23.8395 31.6467 24.9776 31.4203C26.1157 31.1939 27.1611 30.6351 27.9816 29.8146C28.8021 28.9941 29.3609 27.9487 29.5873 26.8106C29.8136 25.6725 29.6975 24.4929 29.2534 23.4208C28.8093 22.3488 28.0574 21.4324 27.0925 20.7878C26.1277 20.1431 24.9934 19.799 23.833 19.799C23.0624 19.7982 22.2991 19.9494 21.587 20.244C20.8749 20.5386 20.2279 20.9707 19.683 21.5157C19.1381 22.0607 18.7061 22.7078 18.4116 23.4199C18.1172 24.1321 17.9661 24.8954 17.967 25.666H17.966Z" fill="#6318AF"/>
</svg>
