<svg width="20" height="21" viewBox="0 0 20 21" fill="none" xmlns="http://www.w3.org/2000/svg">
<path d="M20 10.5918C20 12.5696 19.4135 14.503 18.3147 16.1475C17.2159 17.792 15.6541 19.0737 13.8268 19.8306C11.9996 20.5875 9.98891 20.7855 8.0491 20.3997C6.10929 20.0138 4.32746 19.0614 2.92894 17.6629C1.53041 16.2643 0.578004 14.4825 0.192152 12.5427C-0.193701 10.6029 0.00433284 8.59222 0.761209 6.76496C1.51809 4.9377 2.79981 3.37592 4.4443 2.2771C6.08879 1.17829 8.02219 0.591797 10 0.591797C12.6522 0.591797 15.1957 1.64537 17.0711 3.52073C18.9464 5.39609 20 7.93963 20 10.5918ZM8.843 15.8858L16.262 8.4668C16.3829 8.34584 16.4508 8.18182 16.4508 8.0108C16.4508 7.83977 16.3829 7.67575 16.262 7.5548L15.35 6.6428C15.229 6.52189 15.065 6.45396 14.894 6.45396C14.723 6.45396 14.559 6.52189 14.438 6.6428L8.387 12.6928L5.562 9.8678C5.44105 9.74689 5.27703 9.67896 5.106 9.67896C4.93498 9.67896 4.77096 9.74689 4.65 9.8678L3.738 10.7798C3.61709 10.9008 3.54917 11.0648 3.54917 11.2358C3.54917 11.4068 3.61709 11.5708 3.738 11.6918L7.932 15.8858C8.05296 16.0067 8.21698 16.0746 8.388 16.0746C8.55903 16.0746 8.72305 16.0067 8.844 15.8858H8.843Z" fill="#9349DE"/>
</svg>
