<svg width="1920" height="854" viewBox="0 0 1920 854" fill="none" xmlns="http://www.w3.org/2000/svg">
<g filter="url(#filter0_d_371_1291)">
<path d="M1295.57 470.965C1288.82 471.565 1281.98 471.868 1275.06 471.873C1252.26 471.895 1229.58 468.509 1207.79 461.828C1168.22 497.033 1117.09 516.441 1064.13 516.35C1042.44 516.374 1020.88 513.136 1000.15 506.748C950.599 552.044 885.865 577.115 818.731 577.006C777.174 577.058 736.173 567.467 698.951 548.987C661.73 530.507 629.304 503.642 604.224 470.506C595.867 471.42 587.467 471.875 579.06 471.873C556.262 471.895 533.588 468.509 511.791 461.828C472.228 497.032 421.091 516.44 368.133 516.35C346.444 516.374 324.874 513.138 304.147 506.75C254.596 552.046 189.862 577.115 122.728 577.006C-25.682 577.006 -145.997 457.074 -145.997 309.135C-145.997 161.196 -25.682 41.264 122.728 41.264C183.761 41.1573 243.004 61.8791 290.664 100.004C315.395 90.5433 341.655 85.7093 368.134 85.7425C382.695 85.7349 397.219 87.1868 411.49 90.0765C432.865 66.9901 458.789 48.5783 487.628 36.0023C516.467 23.4263 547.598 16.9584 579.06 17.0043C628.075 16.9203 675.808 32.6595 715.16 61.8812C747.978 48.2248 783.18 41.2169 818.726 41.264C879.759 41.1579 939.001 61.8797 986.662 100.004C1011.39 90.5439 1037.65 85.7099 1064.13 85.7425C1078.69 85.7346 1093.21 87.1865 1107.48 90.0765C1128.86 66.9906 1154.78 48.5802 1183.62 36.0043C1212.46 23.4283 1243.59 16.959 1275.05 17.0043C1323.31 16.92 1370.35 32.1761 1409.37 60.5687C1441.28 47.774 1475.35 41.2214 1509.73 41.2679C1570.76 41.1618 1630 61.8836 1677.66 100.008C1702.39 90.5473 1728.65 85.7133 1755.13 85.7464C1769.69 85.7385 1784.21 87.1904 1798.48 90.0804C1819.86 66.9945 1845.78 48.5841 1874.62 36.0082C1903.46 23.4322 1934.59 16.9629 1966.05 17.0082C2015.39 16.9231 2063.42 32.8683 2102.91 62.4437C2123.68 56.4265 2145.21 53.3814 2166.83 53.3988C2292.85 53.3988 2395 155.228 2395 280.836C2395 406.444 2292.85 508.274 2166.83 508.274C2117.5 508.358 2069.47 492.412 2029.98 462.836C2009.21 468.854 1987.68 471.9 1966.05 471.883C1943.26 471.905 1920.58 468.519 1898.78 461.838C1859.22 497.042 1808.08 516.451 1755.13 516.36C1733.44 516.383 1711.87 513.148 1691.14 506.76C1641.59 552.057 1576.86 577.126 1509.73 577.016C1468.27 577.066 1427.36 567.516 1390.21 549.118C1353.05 530.719 1320.66 503.971 1295.57 470.965Z" fill="#560F9F"/>
</g>
<g filter="url(#filter1_d_371_1291)">
<path d="M1944.86 663.746C1924.14 670.134 1902.57 673.37 1880.88 673.346C1827.92 673.436 1776.78 654.028 1737.22 618.825C1715.42 625.505 1692.75 628.891 1669.95 628.869C1663.04 628.869 1656.2 628.569 1649.44 627.963C1624.34 660.967 1591.95 687.714 1554.8 706.11C1517.64 724.506 1476.73 734.05 1435.27 733.998C1368.14 734.104 1303.41 709.036 1253.86 663.743C1233.13 670.13 1211.56 673.368 1189.88 673.344C1136.92 673.434 1085.78 654.026 1046.22 618.823C1024.42 625.503 1001.75 628.889 978.949 628.868C970.542 628.869 962.141 628.412 953.783 627.498C928.703 660.634 896.277 687.497 859.056 705.977C821.835 724.457 780.833 734.049 739.277 733.998C672.143 734.104 607.41 709.036 557.858 663.743C537.131 670.13 515.561 673.366 493.872 673.342C440.915 673.432 389.777 654.024 350.214 618.821C328.419 625.501 305.748 628.886 282.952 628.866C261.321 628.883 239.796 625.837 219.018 619.819C179.53 649.397 131.5 665.345 82.1631 665.258C-43.8449 665.258 -146 563.428 -146 437.821C-146 312.214 -43.8449 210.385 82.1631 210.385C103.793 210.367 125.316 213.413 146.091 219.43C185.582 189.854 233.613 173.906 282.951 173.993C314.412 173.947 345.542 180.417 374.38 192.993C403.219 205.569 429.141 223.979 450.514 247.065C464.785 244.175 479.31 242.723 493.87 242.731C520.349 242.698 546.609 247.532 571.34 256.993C619.001 218.867 678.243 198.148 739.276 198.254C774.821 198.208 810.023 205.214 842.841 218.869C882.195 189.648 929.93 173.908 978.947 173.993C1010.41 173.947 1041.54 180.417 1070.38 192.993C1099.22 205.568 1125.14 223.979 1146.52 247.065C1160.79 244.175 1175.31 242.723 1189.87 242.731C1216.35 242.697 1242.61 247.531 1267.34 256.993C1315 218.868 1374.24 198.149 1435.27 198.254C1469.65 198.208 1503.72 204.758 1535.63 217.553C1574.65 189.161 1621.69 173.904 1669.95 173.989C1701.41 173.943 1732.54 180.413 1761.38 192.989C1790.22 205.565 1816.14 223.975 1837.52 247.061C1851.79 244.171 1866.31 242.719 1880.87 242.727C1907.35 242.694 1933.61 247.528 1958.34 256.989C2006 218.864 2065.24 198.143 2126.27 198.248C2274.69 198.248 2395 318.18 2395 466.119C2395 614.058 2274.69 733.991 2126.27 733.991C2059.14 734.098 1994.41 709.035 1944.86 663.746Z" fill="#6E20BE"/>
</g>
<g filter="url(#filter2_d_371_1291)">
<path d="M1295.57 782.965C1288.82 783.565 1281.98 783.868 1275.06 783.873C1252.26 783.895 1229.58 780.509 1207.79 773.828C1168.22 809.033 1117.09 828.441 1064.13 828.35C1042.44 828.374 1020.88 825.136 1000.15 818.748C950.599 864.044 885.865 889.115 818.731 889.006C777.174 889.058 736.173 879.467 698.951 860.987C661.73 842.507 629.304 815.642 604.224 782.506C595.867 783.42 587.467 783.875 579.06 783.873C556.262 783.895 533.588 780.509 511.791 773.828C472.228 809.032 421.091 828.44 368.133 828.35C346.444 828.374 324.874 825.138 304.147 818.75C254.596 864.046 189.862 889.115 122.728 889.006C-25.682 889.006 -145.997 769.074 -145.997 621.135C-145.997 473.196 -25.682 353.264 122.728 353.264C183.761 353.157 243.004 373.879 290.664 412.004C315.395 402.543 341.655 397.709 368.134 397.743C382.695 397.735 397.219 399.187 411.49 402.077C432.865 378.99 458.789 360.578 487.628 348.002C516.467 335.426 547.598 328.958 579.06 329.004C628.075 328.92 675.808 344.66 715.16 373.881C747.978 360.225 783.18 353.217 818.726 353.264C879.759 353.158 939.001 373.88 986.662 412.004C1011.39 402.544 1037.65 397.71 1064.13 397.743C1078.69 397.735 1093.21 399.187 1107.48 402.077C1128.86 378.991 1154.78 360.58 1183.62 348.004C1212.46 335.428 1243.59 328.959 1275.05 329.004C1323.31 328.92 1370.35 344.176 1409.37 372.569C1441.28 359.774 1475.35 353.221 1509.73 353.268C1570.76 353.162 1630 373.884 1677.66 412.008C1702.39 402.547 1728.65 397.713 1755.13 397.746C1769.69 397.739 1784.21 399.19 1798.48 402.08C1819.86 378.994 1845.78 360.584 1874.62 348.008C1903.46 335.432 1934.59 328.963 1966.05 329.008C2015.39 328.923 2063.42 344.868 2102.91 374.444C2123.68 368.427 2145.21 365.381 2166.83 365.399C2292.85 365.399 2395 467.228 2395 592.836C2395 718.444 2292.85 820.274 2166.83 820.274C2117.5 820.358 2069.47 804.412 2029.98 774.836C2009.21 780.854 1987.68 783.9 1966.05 783.883C1943.26 783.905 1920.58 780.519 1898.78 773.838C1859.22 809.042 1808.08 828.451 1755.13 828.36C1733.44 828.383 1711.87 825.148 1691.14 818.76C1641.59 864.057 1576.86 889.126 1509.73 889.016C1468.27 889.066 1427.36 879.516 1390.21 861.118C1353.05 842.719 1320.66 815.971 1295.57 782.965Z" fill="#9349DE"/>
</g>
<path d="M1918 656H-1.99585V1842H1918V656Z" fill="#9349DE"/>
<defs>
<filter id="filter0_d_371_1291" x="-165.997" y="0.00390625" width="2581" height="600.012" filterUnits="userSpaceOnUse" color-interpolation-filters="sRGB">
<feFlood flood-opacity="0" result="BackgroundImageFix"/>
<feColorMatrix in="SourceAlpha" type="matrix" values="0 0 0 0 0 0 0 0 0 0 0 0 0 0 0 0 0 0 127 0" result="hardAlpha"/>
<feOffset dy="3"/>
<feGaussianBlur stdDeviation="10"/>
<feColorMatrix type="matrix" values="0 0 0 0 0 0 0 0 0 0 0 0 0 0 0 0 0 0 0.102 0"/>
<feBlend mode="normal" in2="BackgroundImageFix" result="effect1_dropShadow_371_1291"/>
<feBlend mode="normal" in="SourceGraphic" in2="effect1_dropShadow_371_1291" result="shape"/>
</filter>
<filter id="filter1_d_371_1291" x="-166" y="156.988" width="2581" height="600.01" filterUnits="userSpaceOnUse" color-interpolation-filters="sRGB">
<feFlood flood-opacity="0" result="BackgroundImageFix"/>
<feColorMatrix in="SourceAlpha" type="matrix" values="0 0 0 0 0 0 0 0 0 0 0 0 0 0 0 0 0 0 127 0" result="hardAlpha"/>
<feOffset dy="3"/>
<feGaussianBlur stdDeviation="10"/>
<feColorMatrix type="matrix" values="0 0 0 0 0 0 0 0 0 0 0 0 0 0 0 0 0 0 0.102 0"/>
<feBlend mode="normal" in2="BackgroundImageFix" result="effect1_dropShadow_371_1291"/>
<feBlend mode="normal" in="SourceGraphic" in2="effect1_dropShadow_371_1291" result="shape"/>
</filter>
<filter id="filter2_d_371_1291" x="-165.997" y="312.004" width="2581" height="600.012" filterUnits="userSpaceOnUse" color-interpolation-filters="sRGB">
<feFlood flood-opacity="0" result="BackgroundImageFix"/>
<feColorMatrix in="SourceAlpha" type="matrix" values="0 0 0 0 0 0 0 0 0 0 0 0 0 0 0 0 0 0 127 0" result="hardAlpha"/>
<feOffset dy="3"/>
<feGaussianBlur stdDeviation="10"/>
<feColorMatrix type="matrix" values="0 0 0 0 0 0 0 0 0 0 0 0 0 0 0 0 0 0 0.102 0"/>
<feBlend mode="normal" in2="BackgroundImageFix" result="effect1_dropShadow_371_1291"/>
<feBlend mode="normal" in="SourceGraphic" in2="effect1_dropShadow_371_1291" result="shape"/>
</filter>
</defs>
</svg>
