<svg width="22" height="22" viewBox="0 0 22 22" fill="none" xmlns="http://www.w3.org/2000/svg">
<path d="M10.526 18.5264C14.9443 18.5264 18.526 14.9446 18.526 10.5264C18.526 6.10809 14.9443 2.52637 10.526 2.52637C6.10772 2.52637 2.526 6.10809 2.526 10.5264C2.526 14.9446 6.10772 18.5264 10.526 18.5264Z" fill="white"/>
<path d="M10.525 6.90653e-05C8.44316 0.000266856 6.40812 0.617799 4.67724 1.77458C2.94636 2.93135 1.59737 4.57542 0.800866 6.49887C0.0043608 8.42232 -0.203888 10.5388 0.202454 12.5806C0.608796 14.6224 1.61148 16.4978 3.08371 17.9698C4.55593 19.4417 6.43158 20.4441 8.47346 20.85C10.5153 21.256 12.6318 21.0473 14.5551 20.2504C16.4784 19.4536 18.1222 18.1043 19.2786 16.3732C20.4351 14.6421 21.0522 12.6069 21.052 10.5251C21.0568 9.1414 20.7877 7.77047 20.2603 6.49124C19.733 5.21201 18.9577 4.04976 17.9792 3.07145C17.0007 2.09314 15.8383 1.3181 14.559 0.790971C13.2797 0.263843 11.9087 -0.00495195 10.525 6.90653e-05ZM15.789 14.3151L14.315 15.7891L10.525 11.9991L6.736 15.7881L5.263 14.3151L9.052 10.5251L5.263 6.73607L6.73701 5.26307L10.525 9.05207L14.315 5.26307L15.789 6.73607L11.999 10.5251L15.789 14.3151Z" fill="#EB6856"/>
</svg>
