<svg width="480" height="320" viewBox="0 0 480 320" fill="none" xmlns="http://www.w3.org/2000/svg">
<rect x="0.5" y="0.5" width="479" height="319" rx="5.5" fill="#F7F7F7"/>
<path d="M223.5 131.333V125.833H227.167V131.333H232.667V135H227.167V140.5H223.5V135H218V131.333H223.5ZM229 142.333V136.833H234.5V131.333H247.333L250.688 135H256.5C257.472 135.003 258.403 135.39 259.09 136.077C259.777 136.764 260.164 137.695 260.167 138.667V160.667C260.164 161.639 259.777 162.569 259.09 163.256C258.403 163.943 257.472 164.33 256.5 164.333H227.167C226.195 164.33 225.264 163.943 224.577 163.256C223.89 162.569 223.503 161.638 223.5 160.666V142.333H229ZM241.833 158.833C243.646 158.833 245.418 158.295 246.926 157.288C248.433 156.281 249.608 154.849 250.302 153.174C250.996 151.499 251.178 149.656 250.824 147.878C250.47 146.099 249.597 144.466 248.315 143.184C247.033 141.902 245.4 141.029 243.621 140.675C241.843 140.321 240 140.503 238.325 141.197C236.65 141.891 235.218 143.066 234.211 144.573C233.204 146.081 232.666 147.853 232.666 149.666C232.667 152.097 233.633 154.428 235.352 156.147C237.071 157.866 239.402 158.832 241.833 158.833ZM235.966 149.666C235.966 150.826 236.31 151.961 236.955 152.926C237.599 153.89 238.516 154.642 239.588 155.086C240.66 155.53 241.84 155.647 242.978 155.42C244.116 155.194 245.161 154.635 245.982 153.815C246.802 152.994 247.361 151.949 247.587 150.811C247.814 149.673 247.697 148.493 247.253 147.421C246.809 146.349 246.057 145.432 245.093 144.788C244.128 144.143 242.993 143.799 241.833 143.799C241.062 143.798 240.299 143.949 239.587 144.244C238.875 144.539 238.228 144.971 237.683 145.516C237.138 146.061 236.706 146.708 236.412 147.42C236.117 148.132 235.966 148.895 235.967 149.666H235.966Z" fill="#6318AF"/>
<path d="M146.3 182.888C145.748 182.888 145.252 182.983 144.81 183.175C144.372 183.362 143.998 183.635 143.688 183.995C143.383 184.351 143.148 184.781 142.984 185.287C142.82 185.793 142.738 186.363 142.738 186.996C142.738 187.835 142.868 188.564 143.128 189.184C143.392 189.799 143.784 190.275 144.304 190.612C144.828 190.95 145.482 191.118 146.266 191.118C146.712 191.118 147.132 191.082 147.523 191.009C147.92 190.931 148.305 190.836 148.679 190.722V191.733C148.314 191.87 147.931 191.97 147.53 192.034C147.129 192.103 146.653 192.137 146.102 192.137C145.085 192.137 144.235 191.927 143.552 191.508C142.873 191.084 142.362 190.487 142.021 189.717C141.683 188.947 141.515 188.037 141.515 186.989C141.515 186.233 141.619 185.542 141.829 184.918C142.043 184.289 142.353 183.747 142.759 183.291C143.169 182.835 143.67 182.484 144.263 182.238C144.86 181.988 145.543 181.862 146.313 181.862C146.819 181.862 147.307 181.912 147.776 182.013C148.246 182.113 148.67 182.257 149.048 182.443L148.583 183.428C148.264 183.282 147.913 183.157 147.53 183.052C147.152 182.942 146.742 182.888 146.3 182.888ZM151.81 181.363V184.542C151.81 184.724 151.805 184.909 151.796 185.096C151.787 185.278 151.771 185.447 151.748 185.602H151.823C151.978 185.337 152.174 185.116 152.411 184.938C152.653 184.756 152.926 184.619 153.231 184.528C153.537 184.433 153.86 184.385 154.202 184.385C154.804 184.385 155.305 184.48 155.706 184.672C156.112 184.863 156.415 185.16 156.615 185.561C156.82 185.962 156.923 186.481 156.923 187.119V192H155.802V187.194C155.802 186.57 155.658 186.103 155.371 185.793C155.089 185.483 154.653 185.328 154.065 185.328C153.509 185.328 153.065 185.435 152.732 185.649C152.404 185.859 152.167 186.169 152.021 186.579C151.88 186.989 151.81 187.491 151.81 188.083V192H150.675V181.363H151.81ZM165.721 188.24C165.721 188.855 165.641 189.405 165.481 189.888C165.322 190.371 165.092 190.779 164.791 191.111C164.49 191.444 164.126 191.699 163.697 191.877C163.273 192.05 162.793 192.137 162.255 192.137C161.754 192.137 161.293 192.05 160.874 191.877C160.459 191.699 160.099 191.444 159.794 191.111C159.493 190.779 159.258 190.371 159.09 189.888C158.926 189.405 158.844 188.855 158.844 188.24C158.844 187.42 158.983 186.723 159.261 186.148C159.539 185.57 159.935 185.13 160.45 184.829C160.97 184.524 161.587 184.371 162.303 184.371C162.986 184.371 163.583 184.524 164.094 184.829C164.609 185.134 165.007 185.576 165.29 186.155C165.577 186.729 165.721 187.424 165.721 188.24ZM160.02 188.24C160.02 188.842 160.099 189.364 160.259 189.806C160.418 190.248 160.664 190.59 160.997 190.831C161.33 191.073 161.758 191.193 162.282 191.193C162.802 191.193 163.228 191.073 163.561 190.831C163.898 190.59 164.146 190.248 164.306 189.806C164.465 189.364 164.545 188.842 164.545 188.24C164.545 187.643 164.465 187.128 164.306 186.695C164.146 186.258 163.9 185.921 163.567 185.684C163.235 185.447 162.804 185.328 162.275 185.328C161.496 185.328 160.924 185.586 160.56 186.101C160.2 186.616 160.02 187.329 160.02 188.24ZM174.143 188.24C174.143 188.855 174.063 189.405 173.903 189.888C173.744 190.371 173.514 190.779 173.213 191.111C172.912 191.444 172.548 191.699 172.119 191.877C171.695 192.05 171.215 192.137 170.677 192.137C170.175 192.137 169.715 192.05 169.296 191.877C168.881 191.699 168.521 191.444 168.216 191.111C167.915 190.779 167.68 190.371 167.512 189.888C167.348 189.405 167.266 188.855 167.266 188.24C167.266 187.42 167.405 186.723 167.683 186.148C167.961 185.57 168.357 185.13 168.872 184.829C169.392 184.524 170.009 184.371 170.725 184.371C171.408 184.371 172.005 184.524 172.516 184.829C173.031 185.134 173.429 185.576 173.712 186.155C173.999 186.729 174.143 187.424 174.143 188.24ZM168.441 188.24C168.441 188.842 168.521 189.364 168.681 189.806C168.84 190.248 169.086 190.59 169.419 190.831C169.752 191.073 170.18 191.193 170.704 191.193C171.224 191.193 171.65 191.073 171.982 190.831C172.32 190.59 172.568 190.248 172.728 189.806C172.887 189.364 172.967 188.842 172.967 188.24C172.967 187.643 172.887 187.128 172.728 186.695C172.568 186.258 172.322 185.921 171.989 185.684C171.657 185.447 171.226 185.328 170.697 185.328C169.918 185.328 169.346 185.586 168.981 186.101C168.621 186.616 168.441 187.329 168.441 188.24ZM180.951 189.949C180.951 190.428 180.83 190.831 180.589 191.159C180.352 191.483 180.01 191.727 179.563 191.891C179.121 192.055 178.593 192.137 177.978 192.137C177.453 192.137 177 192.096 176.617 192.014C176.234 191.932 175.899 191.815 175.612 191.665V190.619C175.918 190.77 176.282 190.906 176.706 191.029C177.13 191.152 177.563 191.214 178.005 191.214C178.652 191.214 179.121 191.109 179.413 190.899C179.705 190.69 179.851 190.405 179.851 190.045C179.851 189.84 179.791 189.66 179.673 189.505C179.559 189.345 179.365 189.193 179.092 189.047C178.818 188.896 178.44 188.732 177.957 188.555C177.479 188.372 177.064 188.192 176.713 188.015C176.367 187.832 176.098 187.611 175.906 187.352C175.719 187.092 175.626 186.755 175.626 186.34C175.626 185.706 175.881 185.221 176.392 184.884C176.907 184.542 177.581 184.371 178.415 184.371C178.866 184.371 179.288 184.417 179.68 184.508C180.076 184.594 180.445 184.713 180.787 184.863L180.404 185.772C180.094 185.64 179.764 185.529 179.413 185.438C179.062 185.346 178.704 185.301 178.34 185.301C177.816 185.301 177.412 185.387 177.13 185.561C176.852 185.734 176.713 185.971 176.713 186.271C176.713 186.504 176.777 186.695 176.904 186.846C177.036 186.996 177.246 187.137 177.533 187.27C177.82 187.402 178.199 187.557 178.668 187.734C179.137 187.908 179.543 188.088 179.885 188.274C180.227 188.457 180.489 188.68 180.671 188.944C180.858 189.204 180.951 189.539 180.951 189.949ZM185.661 184.371C186.299 184.371 186.846 184.512 187.302 184.795C187.757 185.077 188.106 185.474 188.348 185.984C188.589 186.49 188.71 187.083 188.71 187.762V188.466H183.535C183.549 189.345 183.768 190.015 184.191 190.476C184.615 190.936 185.212 191.166 185.982 191.166C186.456 191.166 186.876 191.123 187.24 191.036C187.605 190.95 187.983 190.822 188.375 190.653V191.651C187.997 191.82 187.621 191.943 187.247 192.021C186.878 192.098 186.44 192.137 185.935 192.137C185.215 192.137 184.586 191.991 184.048 191.699C183.515 191.403 183.1 190.97 182.804 190.4C182.507 189.831 182.359 189.133 182.359 188.309C182.359 187.502 182.494 186.805 182.763 186.217C183.036 185.624 183.419 185.169 183.911 184.85C184.408 184.531 184.991 184.371 185.661 184.371ZM185.647 185.301C185.041 185.301 184.558 185.499 184.198 185.896C183.838 186.292 183.624 186.846 183.556 187.557H187.521C187.516 187.11 187.445 186.718 187.309 186.381C187.176 186.039 186.974 185.775 186.7 185.588C186.427 185.396 186.076 185.301 185.647 185.301ZM200.734 188.24C200.734 188.855 200.655 189.405 200.495 189.888C200.336 190.371 200.105 190.779 199.805 191.111C199.504 191.444 199.139 191.699 198.711 191.877C198.287 192.05 197.806 192.137 197.269 192.137C196.767 192.137 196.307 192.05 195.888 191.877C195.473 191.699 195.113 191.444 194.808 191.111C194.507 190.779 194.272 190.371 194.104 189.888C193.939 189.405 193.857 188.855 193.857 188.24C193.857 187.42 193.996 186.723 194.274 186.148C194.552 185.57 194.949 185.13 195.464 184.829C195.983 184.524 196.601 184.371 197.316 184.371C198 184.371 198.597 184.524 199.107 184.829C199.622 185.134 200.021 185.576 200.304 186.155C200.591 186.729 200.734 187.424 200.734 188.24ZM195.033 188.24C195.033 188.842 195.113 189.364 195.272 189.806C195.432 190.248 195.678 190.59 196.011 190.831C196.343 191.073 196.772 191.193 197.296 191.193C197.815 191.193 198.242 191.073 198.574 190.831C198.911 190.59 199.16 190.248 199.319 189.806C199.479 189.364 199.559 188.842 199.559 188.24C199.559 187.643 199.479 187.128 199.319 186.695C199.16 186.258 198.914 185.921 198.581 185.684C198.248 185.447 197.818 185.328 197.289 185.328C196.51 185.328 195.938 185.586 195.573 186.101C195.213 186.616 195.033 187.329 195.033 188.24ZM206.101 184.371C206.251 184.371 206.408 184.38 206.572 184.398C206.736 184.412 206.882 184.433 207.01 184.46L206.866 185.513C206.743 185.481 206.606 185.456 206.456 185.438C206.306 185.419 206.164 185.41 206.032 185.41C205.731 185.41 205.447 185.472 205.178 185.595C204.913 185.713 204.681 185.886 204.48 186.114C204.28 186.338 204.123 186.609 204.009 186.928C203.895 187.242 203.838 187.593 203.838 187.98V192H202.696V184.508H203.64L203.763 185.889H203.811C203.965 185.611 204.152 185.358 204.371 185.13C204.59 184.897 204.843 184.713 205.13 184.576C205.422 184.439 205.745 184.371 206.101 184.371ZM214.728 192.137C213.78 192.137 213.028 191.813 212.472 191.166C211.92 190.519 211.645 189.557 211.645 188.281C211.645 186.992 211.927 186.019 212.492 185.362C213.057 184.701 213.809 184.371 214.748 184.371C215.145 184.371 215.491 184.424 215.787 184.528C216.083 184.633 216.339 184.774 216.553 184.952C216.767 185.125 216.947 185.324 217.093 185.547H217.175C217.157 185.406 217.138 185.212 217.12 184.966C217.102 184.72 217.093 184.519 217.093 184.364V181.363H218.228V192H217.312L217.141 190.934H217.093C216.951 191.157 216.771 191.36 216.553 191.542C216.339 191.724 216.081 191.87 215.78 191.979C215.484 192.084 215.133 192.137 214.728 192.137ZM214.905 191.193C215.707 191.193 216.275 190.965 216.607 190.51C216.94 190.054 217.106 189.377 217.106 188.479V188.274C217.106 187.322 216.947 186.59 216.628 186.08C216.313 185.57 215.739 185.314 214.905 185.314C214.208 185.314 213.686 185.583 213.34 186.121C212.993 186.654 212.82 187.383 212.82 188.309C212.82 189.229 212.991 189.94 213.333 190.441C213.679 190.943 214.203 191.193 214.905 191.193ZM224.038 184.371C224.188 184.371 224.346 184.38 224.51 184.398C224.674 184.412 224.82 184.433 224.947 184.46L224.804 185.513C224.681 185.481 224.544 185.456 224.394 185.438C224.243 185.419 224.102 185.41 223.97 185.41C223.669 185.41 223.384 185.472 223.115 185.595C222.851 185.713 222.618 185.886 222.418 186.114C222.217 186.338 222.06 186.609 221.946 186.928C221.832 187.242 221.775 187.593 221.775 187.98V192H220.634V184.508H221.577L221.7 185.889H221.748C221.903 185.611 222.09 185.358 222.309 185.13C222.527 184.897 222.78 184.713 223.067 184.576C223.359 184.439 223.683 184.371 224.038 184.371ZM229.165 184.385C230.058 184.385 230.721 184.585 231.154 184.986C231.587 185.387 231.804 186.028 231.804 186.907V192H230.977L230.758 190.893H230.703C230.493 191.166 230.275 191.396 230.047 191.583C229.819 191.765 229.555 191.904 229.254 192C228.958 192.091 228.593 192.137 228.16 192.137C227.704 192.137 227.299 192.057 226.943 191.897C226.592 191.738 226.314 191.496 226.109 191.173C225.909 190.849 225.809 190.439 225.809 189.942C225.809 189.195 226.105 188.621 226.697 188.22C227.29 187.819 228.192 187.6 229.404 187.563L230.696 187.509V187.051C230.696 186.404 230.557 185.95 230.279 185.69C230.001 185.431 229.609 185.301 229.104 185.301C228.712 185.301 228.338 185.358 227.982 185.472C227.627 185.586 227.29 185.72 226.971 185.875L226.622 185.014C226.959 184.84 227.347 184.692 227.784 184.569C228.222 184.446 228.682 184.385 229.165 184.385ZM230.683 188.309L229.541 188.356C228.607 188.393 227.948 188.546 227.565 188.814C227.183 189.083 226.991 189.464 226.991 189.956C226.991 190.384 227.121 190.701 227.381 190.906C227.641 191.111 227.985 191.214 228.413 191.214C229.078 191.214 229.623 191.029 230.047 190.66C230.471 190.291 230.683 189.737 230.683 188.999V188.309ZM236.233 195.363C235.249 195.363 234.49 195.179 233.957 194.81C233.424 194.445 233.157 193.932 233.157 193.271C233.157 192.802 233.305 192.401 233.602 192.068C233.902 191.736 234.317 191.515 234.846 191.405C234.65 191.314 234.481 191.177 234.34 190.995C234.203 190.813 234.135 190.603 234.135 190.366C234.135 190.093 234.21 189.854 234.36 189.648C234.515 189.439 234.75 189.238 235.064 189.047C234.673 188.887 234.354 188.618 234.107 188.24C233.866 187.857 233.745 187.413 233.745 186.907C233.745 186.369 233.857 185.911 234.08 185.533C234.303 185.15 234.627 184.859 235.051 184.658C235.475 184.458 235.987 184.357 236.589 184.357C236.721 184.357 236.853 184.364 236.985 184.378C237.122 184.387 237.252 184.403 237.375 184.426C237.498 184.444 237.605 184.467 237.696 184.494H240.267V185.226L238.886 185.396C239.022 185.574 239.136 185.788 239.228 186.039C239.319 186.29 239.364 186.568 239.364 186.873C239.364 187.62 239.111 188.215 238.605 188.657C238.1 189.095 237.405 189.313 236.521 189.313C236.311 189.313 236.097 189.295 235.878 189.259C235.655 189.382 235.484 189.519 235.365 189.669C235.251 189.819 235.194 189.993 235.194 190.188C235.194 190.334 235.238 190.451 235.324 190.537C235.415 190.624 235.545 190.688 235.714 190.729C235.882 190.765 236.085 190.783 236.322 190.783H237.642C238.457 190.783 239.082 190.954 239.515 191.296C239.952 191.638 240.171 192.137 240.171 192.793C240.171 193.622 239.834 194.258 239.159 194.7C238.485 195.142 237.509 195.363 236.233 195.363ZM236.268 194.475C236.887 194.475 237.4 194.411 237.806 194.283C238.216 194.16 238.521 193.98 238.722 193.743C238.927 193.511 239.029 193.233 239.029 192.909C239.029 192.608 238.961 192.381 238.824 192.226C238.688 192.075 238.487 191.975 238.223 191.925C237.958 191.87 237.635 191.843 237.252 191.843H235.953C235.616 191.843 235.322 191.895 235.071 192C234.821 192.105 234.627 192.26 234.49 192.465C234.358 192.67 234.292 192.925 234.292 193.23C234.292 193.636 234.463 193.944 234.805 194.153C235.146 194.368 235.634 194.475 236.268 194.475ZM236.562 188.486C237.104 188.486 237.512 188.35 237.785 188.076C238.059 187.803 238.195 187.404 238.195 186.88C238.195 186.319 238.056 185.9 237.778 185.622C237.5 185.34 237.09 185.198 236.548 185.198C236.028 185.198 235.627 185.344 235.345 185.636C235.067 185.923 234.928 186.344 234.928 186.9C234.928 187.411 235.069 187.803 235.352 188.076C235.634 188.35 236.037 188.486 236.562 188.486ZM251.566 184.508V192H250.637L250.473 190.947H250.411C250.256 191.207 250.056 191.426 249.81 191.604C249.563 191.781 249.285 191.913 248.976 192C248.67 192.091 248.344 192.137 247.998 192.137C247.406 192.137 246.909 192.041 246.508 191.85C246.107 191.658 245.804 191.362 245.599 190.961C245.398 190.56 245.298 190.045 245.298 189.416V184.508H246.446V189.334C246.446 189.958 246.588 190.425 246.87 190.735C247.153 191.041 247.583 191.193 248.162 191.193C248.718 191.193 249.16 191.089 249.488 190.879C249.821 190.669 250.06 190.362 250.206 189.956C250.352 189.546 250.425 189.045 250.425 188.452V184.508H251.566ZM257.486 184.371C258.421 184.371 259.166 184.692 259.722 185.335C260.278 185.978 260.556 186.944 260.556 188.233C260.556 189.086 260.428 189.801 260.173 190.38C259.918 190.959 259.558 191.396 259.093 191.692C258.632 191.989 258.088 192.137 257.459 192.137C257.062 192.137 256.714 192.084 256.413 191.979C256.112 191.875 255.855 191.733 255.641 191.556C255.426 191.378 255.249 191.184 255.107 190.975H255.025C255.039 191.152 255.055 191.367 255.073 191.617C255.096 191.868 255.107 192.087 255.107 192.273V195.35H253.966V184.508H254.902L255.053 185.615H255.107C255.253 185.387 255.431 185.18 255.641 184.993C255.85 184.802 256.105 184.651 256.406 184.542C256.712 184.428 257.072 184.371 257.486 184.371ZM257.288 185.328C256.769 185.328 256.349 185.428 256.03 185.629C255.716 185.829 255.486 186.13 255.34 186.531C255.194 186.928 255.117 187.427 255.107 188.028V188.247C255.107 188.881 255.176 189.416 255.312 189.854C255.454 190.291 255.684 190.624 256.003 190.852C256.326 191.079 256.759 191.193 257.302 191.193C257.767 191.193 258.154 191.068 258.464 190.817C258.774 190.567 259.004 190.218 259.154 189.771C259.309 189.32 259.387 188.803 259.387 188.22C259.387 187.336 259.214 186.634 258.867 186.114C258.525 185.59 257.999 185.328 257.288 185.328ZM268.595 191.207C268.782 191.207 268.973 191.191 269.169 191.159C269.365 191.127 269.524 191.089 269.647 191.043V191.925C269.515 191.984 269.331 192.034 269.094 192.075C268.861 192.116 268.633 192.137 268.41 192.137C268.014 192.137 267.654 192.068 267.33 191.932C267.007 191.79 266.747 191.553 266.551 191.221C266.359 190.888 266.264 190.428 266.264 189.84V185.396H265.197V184.843L266.271 184.398L266.722 182.771H267.405V184.508H269.6V185.396H267.405V189.806C267.405 190.275 267.512 190.626 267.727 190.858C267.945 191.091 268.235 191.207 268.595 191.207ZM277.625 188.24C277.625 188.855 277.545 189.405 277.386 189.888C277.226 190.371 276.996 190.779 276.695 191.111C276.395 191.444 276.03 191.699 275.602 191.877C275.178 192.05 274.697 192.137 274.159 192.137C273.658 192.137 273.198 192.05 272.778 191.877C272.364 191.699 272.004 191.444 271.698 191.111C271.397 190.779 271.163 190.371 270.994 189.888C270.83 189.405 270.748 188.855 270.748 188.24C270.748 187.42 270.887 186.723 271.165 186.148C271.443 185.57 271.84 185.13 272.354 184.829C272.874 184.524 273.492 184.371 274.207 184.371C274.891 184.371 275.488 184.524 275.998 184.829C276.513 185.134 276.912 185.576 277.194 186.155C277.481 186.729 277.625 187.424 277.625 188.24ZM271.924 188.24C271.924 188.842 272.004 189.364 272.163 189.806C272.323 190.248 272.569 190.59 272.901 190.831C273.234 191.073 273.662 191.193 274.187 191.193C274.706 191.193 275.132 191.073 275.465 190.831C275.802 190.59 276.05 190.248 276.21 189.806C276.369 189.364 276.449 188.842 276.449 188.24C276.449 187.643 276.369 187.128 276.21 186.695C276.05 186.258 275.804 185.921 275.472 185.684C275.139 185.447 274.708 185.328 274.18 185.328C273.4 185.328 272.828 185.586 272.464 186.101C272.104 186.616 271.924 187.329 271.924 188.24ZM285.876 185.889C286.555 185.889 287.145 186.005 287.646 186.237C288.148 186.465 288.535 186.798 288.809 187.235C289.087 187.673 289.226 188.204 289.226 188.828C289.226 189.512 289.077 190.102 288.781 190.599C288.485 191.091 288.059 191.471 287.503 191.74C286.947 192.005 286.282 192.137 285.507 192.137C284.987 192.137 284.504 192.091 284.058 192C283.611 191.909 283.235 191.772 282.93 191.59V190.51C283.262 190.71 283.666 190.87 284.14 190.988C284.614 191.107 285.074 191.166 285.521 191.166C286.026 191.166 286.468 191.086 286.847 190.927C287.229 190.763 287.526 190.517 287.735 190.188C287.95 189.856 288.057 189.439 288.057 188.938C288.057 188.272 287.852 187.759 287.441 187.399C287.036 187.035 286.393 186.853 285.514 186.853C285.231 186.853 284.921 186.875 284.584 186.921C284.247 186.966 283.969 187.017 283.75 187.071L283.176 186.695L283.559 182.006H288.528V183.045H284.529L284.276 186.06C284.45 186.023 284.673 185.987 284.946 185.95C285.22 185.909 285.53 185.889 285.876 185.889ZM298.393 184.371C299.327 184.371 300.072 184.692 300.628 185.335C301.184 185.978 301.462 186.944 301.462 188.233C301.462 189.086 301.334 189.801 301.079 190.38C300.824 190.959 300.464 191.396 299.999 191.692C299.539 191.989 298.994 192.137 298.365 192.137C297.969 192.137 297.62 192.084 297.319 191.979C297.019 191.875 296.761 191.733 296.547 191.556C296.333 191.378 296.155 191.184 296.014 190.975H295.932C295.945 191.152 295.961 191.367 295.979 191.617C296.002 191.868 296.014 192.087 296.014 192.273V195.35H294.872V184.508H295.809L295.959 185.615H296.014C296.16 185.387 296.337 185.18 296.547 184.993C296.757 184.802 297.012 184.651 297.312 184.542C297.618 184.428 297.978 184.371 298.393 184.371ZM298.194 185.328C297.675 185.328 297.256 185.428 296.937 185.629C296.622 185.829 296.392 186.13 296.246 186.531C296.1 186.928 296.023 187.427 296.014 188.028V188.247C296.014 188.881 296.082 189.416 296.219 189.854C296.36 190.291 296.59 190.624 296.909 190.852C297.233 191.079 297.666 191.193 298.208 191.193C298.673 191.193 299.06 191.068 299.37 190.817C299.68 190.567 299.91 190.218 300.061 189.771C300.215 189.32 300.293 188.803 300.293 188.22C300.293 187.336 300.12 186.634 299.773 186.114C299.432 185.59 298.905 185.328 298.194 185.328ZM304.579 181.363V184.542C304.579 184.724 304.575 184.909 304.565 185.096C304.556 185.278 304.54 185.447 304.518 185.602H304.593C304.748 185.337 304.944 185.116 305.181 184.938C305.422 184.756 305.696 184.619 306.001 184.528C306.306 184.433 306.63 184.385 306.972 184.385C307.573 184.385 308.075 184.48 308.476 184.672C308.881 184.863 309.184 185.16 309.385 185.561C309.59 185.962 309.692 186.481 309.692 187.119V192H308.571V187.194C308.571 186.57 308.428 186.103 308.141 185.793C307.858 185.483 307.423 185.328 306.835 185.328C306.279 185.328 305.835 185.435 305.502 185.649C305.174 185.859 304.937 186.169 304.791 186.579C304.65 186.989 304.579 187.491 304.579 188.083V192H303.444V181.363H304.579ZM318.49 188.24C318.49 188.855 318.41 189.405 318.251 189.888C318.091 190.371 317.861 190.779 317.561 191.111C317.26 191.444 316.895 191.699 316.467 191.877C316.043 192.05 315.562 192.137 315.024 192.137C314.523 192.137 314.063 192.05 313.644 191.877C313.229 191.699 312.869 191.444 312.563 191.111C312.263 190.779 312.028 190.371 311.859 189.888C311.695 189.405 311.613 188.855 311.613 188.24C311.613 187.42 311.752 186.723 312.03 186.148C312.308 185.57 312.705 185.13 313.22 184.829C313.739 184.524 314.357 184.371 315.072 184.371C315.756 184.371 316.353 184.524 316.863 184.829C317.378 185.134 317.777 185.576 318.06 186.155C318.347 186.729 318.49 187.424 318.49 188.24ZM312.789 188.24C312.789 188.842 312.869 189.364 313.028 189.806C313.188 190.248 313.434 190.59 313.767 190.831C314.099 191.073 314.528 191.193 315.052 191.193C315.571 191.193 315.997 191.073 316.33 190.831C316.667 190.59 316.916 190.248 317.075 189.806C317.235 189.364 317.314 188.842 317.314 188.24C317.314 187.643 317.235 187.128 317.075 186.695C316.916 186.258 316.67 185.921 316.337 185.684C316.004 185.447 315.574 185.328 315.045 185.328C314.266 185.328 313.694 185.586 313.329 186.101C312.969 186.616 312.789 187.329 312.789 188.24ZM322.872 191.207C323.059 191.207 323.25 191.191 323.446 191.159C323.642 191.127 323.802 191.089 323.925 191.043V191.925C323.793 191.984 323.608 192.034 323.371 192.075C323.139 192.116 322.911 192.137 322.688 192.137C322.291 192.137 321.931 192.068 321.607 191.932C321.284 191.79 321.024 191.553 320.828 191.221C320.637 190.888 320.541 190.428 320.541 189.84V185.396H319.475V184.843L320.548 184.398L320.999 182.771H321.683V184.508H323.877V185.396H321.683V189.806C321.683 190.275 321.79 190.626 322.004 190.858C322.223 191.091 322.512 191.207 322.872 191.207ZM331.902 188.24C331.902 188.855 331.823 189.405 331.663 189.888C331.504 190.371 331.273 190.779 330.973 191.111C330.672 191.444 330.307 191.699 329.879 191.877C329.455 192.05 328.974 192.137 328.437 192.137C327.935 192.137 327.475 192.05 327.056 191.877C326.641 191.699 326.281 191.444 325.976 191.111C325.675 190.779 325.44 190.371 325.271 189.888C325.107 189.405 325.025 188.855 325.025 188.24C325.025 187.42 325.164 186.723 325.442 186.148C325.72 185.57 326.117 185.13 326.632 184.829C327.151 184.524 327.769 184.371 328.484 184.371C329.168 184.371 329.765 184.524 330.275 184.829C330.79 185.134 331.189 185.576 331.472 186.155C331.759 186.729 331.902 187.424 331.902 188.24ZM326.201 188.24C326.201 188.842 326.281 189.364 326.44 189.806C326.6 190.248 326.846 190.59 327.179 190.831C327.511 191.073 327.94 191.193 328.464 191.193C328.983 191.193 329.41 191.073 329.742 190.831C330.079 190.59 330.328 190.248 330.487 189.806C330.647 189.364 330.727 188.842 330.727 188.24C330.727 187.643 330.647 187.128 330.487 186.695C330.328 186.258 330.082 185.921 329.749 185.684C329.416 185.447 328.986 185.328 328.457 185.328C327.678 185.328 327.106 185.586 326.741 186.101C326.381 186.616 326.201 187.329 326.201 188.24ZM338.711 189.949C338.711 190.428 338.59 190.831 338.349 191.159C338.112 191.483 337.77 191.727 337.323 191.891C336.881 192.055 336.353 192.137 335.737 192.137C335.213 192.137 334.76 192.096 334.377 192.014C333.994 191.932 333.659 191.815 333.372 191.665V190.619C333.677 190.77 334.042 190.906 334.466 191.029C334.89 191.152 335.323 191.214 335.765 191.214C336.412 191.214 336.881 191.109 337.173 190.899C337.465 190.69 337.61 190.405 337.61 190.045C337.61 189.84 337.551 189.66 337.433 189.505C337.319 189.345 337.125 189.193 336.852 189.047C336.578 188.896 336.2 188.732 335.717 188.555C335.238 188.372 334.824 188.192 334.473 188.015C334.126 187.832 333.857 187.611 333.666 187.352C333.479 187.092 333.386 186.755 333.386 186.34C333.386 185.706 333.641 185.221 334.151 184.884C334.666 184.542 335.341 184.371 336.175 184.371C336.626 184.371 337.048 184.417 337.439 184.508C337.836 184.594 338.205 184.713 338.547 184.863L338.164 185.772C337.854 185.64 337.524 185.529 337.173 185.438C336.822 185.346 336.464 185.301 336.1 185.301C335.576 185.301 335.172 185.387 334.89 185.561C334.612 185.734 334.473 185.971 334.473 186.271C334.473 186.504 334.536 186.695 334.664 186.846C334.796 186.996 335.006 187.137 335.293 187.27C335.58 187.402 335.958 187.557 336.428 187.734C336.897 187.908 337.303 188.088 337.645 188.274C337.986 188.457 338.248 188.68 338.431 188.944C338.618 189.204 338.711 189.539 338.711 189.949Z" fill="#6E20BE"/>
<rect x="0.5" y="0.5" width="479" height="319" rx="5.5" stroke="#6318AF" stroke-dasharray="2 2"/>
</svg>
