<svg xmlns="http://www.w3.org/2000/svg" xmlns:xlink="http://www.w3.org/1999/xlink" version="1.1" width="1000" height="1000" viewBox="0 0 1000 1000" xml:space="preserve">
<desc>Created with Fabric.js 3.5.0</desc>
<defs>
</defs>
<rect x="0" y="0" width="100%" height="100%" fill="#ffffff"/>
<g transform="matrix(1.8939 0 0 1.8939 499.9905 499.9937)" id="946378">
<rect style="stroke: none; stroke-width: 1; stroke-dasharray: none; stroke-linecap: butt; stroke-dashoffset: 0; stroke-linejoin: miter; stroke-miterlimit: 4; is-custom-font: none; font-file-url: none; fill: rgb(247,247,247); fill-rule: nonzero; opacity: 1;" x="-239.5" y="-159.5" rx="5.5" ry="5.5" width="479" height="319"/>
</g>
<g transform="matrix(1.8939 0 0 1.8939 498.2634 471.7473)" id="325069">
<path style="stroke: none; stroke-width: 1; stroke-dasharray: none; stroke-linecap: butt; stroke-dashoffset: 0; stroke-linejoin: miter; stroke-miterlimit: 4; is-custom-font: none; font-file-url: none; fill: rgb(99,24,175); fill-rule: nonzero; opacity: 1;" transform=" translate(-239.0835, -145.083)" d="M 223.5 131.333 V 125.833 H 227.167 V 131.333 H 232.667 V 135 H 227.167 V 140.5 H 223.5 V 135 H 218 V 131.333 H 223.5 Z M 229 142.333 V 136.833 H 234.5 V 131.333 H 247.333 L 250.688 135 H 256.5 C 257.472 135.003 258.403 135.39 259.09 136.077 C 259.777 136.764 260.164 137.695 260.167 138.667 V 160.667 C 260.164 161.639 259.777 162.569 259.09 163.256 C 258.403 163.943 257.472 164.33 256.5 164.333 H 227.167 C 226.195 164.33 225.264 163.943 224.577 163.256 C 223.89 162.569 223.503 161.638 223.5 160.666 V 142.333 H 229 Z M 241.833 158.833 C 243.646 158.833 245.418 158.295 246.926 157.288 C 248.433 156.281 249.608 154.849 250.302 153.174 C 250.996 151.499 251.178 149.656 250.824 147.878 C 250.47 146.099 249.597 144.466 248.315 143.184 C 247.033 141.902 245.4 141.029 243.621 140.675 C 241.843 140.321 240 140.503 238.325 141.197 C 236.65 141.891 235.218 143.066 234.211 144.573 C 233.204 146.081 232.666 147.853 232.666 149.666 C 232.667 152.097 233.633 154.428 235.352 156.147 C 237.071 157.866 239.402 158.832 241.833 158.833 Z M 235.966 149.666 C 235.966 150.826 236.31 151.961 236.955 152.926 C 237.599 153.89 238.516 154.642 239.588 155.086 C 240.66 155.53 241.84 155.647 242.978 155.42 C 244.116 155.194 245.161 154.635 245.982 153.815 C 246.802 152.994 247.361 151.949 247.587 150.811 C 247.814 149.673 247.697 148.493 247.253 147.421 C 246.809 146.349 246.057 145.432 245.093 144.788 C 244.128 144.143 242.993 143.799 241.833 143.799 C 241.062 143.798 240.299 143.949 239.587 144.244 C 238.875 144.539 238.228 144.971 237.683 145.516 C 237.138 146.061 236.706 146.708 236.412 147.42 C 236.117 148.132 235.966 148.895 235.967 149.666 H 235.966 Z" stroke-linecap="round"/>
</g>
<g transform="matrix(1.8939 0 0 1.8939 499.9905 499.9937)" id="886363">
<rect style="stroke: rgb(99,24,175); stroke-width: 1; stroke-dasharray: 2 2; stroke-linecap: butt; stroke-dashoffset: 0; stroke-linejoin: miter; stroke-miterlimit: 4; is-custom-font: none; font-file-url: none; fill: none; fill-rule: nonzero; opacity: 1;" x="-239.5" y="-159.5" rx="5.5" ry="5.5" width="479" height="319"/>
</g>
<g transform="matrix(1 0 0 1 500 563.802)" style="" id="582266">
		
<path xml:space="preserve" font-family="Lato" font-size="28" font-style="normal" font-weight="normal" style="stroke: none; stroke-width: 1; stroke-dasharray: none; stroke-linecap: butt; stroke-dashoffset: 0; stroke-linejoin: miter; stroke-miterlimit: 4; is-custom-font: none; font-file-url: none; fill: rgb(110,32,190); fill-rule: nonzero; opacity: 1; white-space: pre;" d="M-124.12 4.65L-124.12 4.65Q-123.89 4.65-123.71 4.83L-123.71 4.83L-122.65 6.00Q-123.88 7.42-125.64 8.22Q-127.39 9.02-129.87 9.02L-129.87 9.02Q-132.04 9.02-133.80 8.27Q-135.57 7.52-136.81 6.17Q-138.06 4.82-138.75 2.93Q-139.43 1.04-139.43-1.23L-139.43-1.23Q-139.43-3.50-138.70-5.39Q-137.96-7.28-136.63-8.63Q-135.30-9.99-133.45-10.74Q-131.59-11.49-129.35-11.49L-129.35-11.49Q-127.14-11.49-125.54-10.80Q-123.93-10.12-122.69-8.94L-122.69-8.94L-123.57-7.70Q-123.67-7.56-123.79-7.47Q-123.92-7.37-124.16-7.37L-124.16-7.37Q-124.34-7.37-124.54-7.51Q-124.75-7.64-125.03-7.84Q-125.31-8.03-125.68-8.26Q-126.06-8.48-126.58-8.68Q-127.10-8.87-127.78-9.01Q-128.47-9.14-129.37-9.14L-129.37-9.14Q-130.98-9.14-132.31-8.59Q-133.65-8.03-134.62-7.01Q-135.58-5.99-136.12-4.52Q-136.66-3.05-136.66-1.23L-136.66-1.23Q-136.66 0.65-136.12 2.12Q-135.58 3.59-134.65 4.60Q-133.72 5.62-132.45 6.15Q-131.17 6.68-129.70 6.68L-129.70 6.68Q-128.81 6.68-128.09 6.58Q-127.38 6.47-126.77 6.25Q-126.16 6.02-125.64 5.68Q-125.11 5.34-124.58 4.86L-124.58 4.86Q-124.34 4.65-124.12 4.65ZM-116.98 8.80L-119.47 8.80L-119.47-11.83L-116.98-11.83L-116.98-3.48Q-116.07-4.45-114.96-5.03Q-113.85-5.61-112.41-5.61L-112.41-5.61Q-111.25-5.61-110.36-5.23Q-109.47-4.84-108.88-4.13Q-108.28-3.43-107.97-2.43Q-107.67-1.44-107.67-0.23L-107.67-0.23L-107.67 8.80L-110.16 8.80L-110.16-0.23Q-110.16-1.84-110.89-2.73Q-111.63-3.62-113.14-3.62L-113.14-3.62Q-114.25-3.62-115.21-3.09Q-116.16-2.56-116.98-1.65L-116.98-1.65L-116.98 8.80ZM-98.16-5.61L-98.16-5.61Q-96.61-5.61-95.35-5.09Q-94.10-4.57-93.23-3.62Q-92.35-2.67-91.88-1.32Q-91.41 0.03-91.41 1.70L-91.41 1.70Q-91.41 3.38-91.88 4.72Q-92.35 6.07-93.23 7.02Q-94.10 7.97-95.35 8.48Q-96.61 8.99-98.16 8.99L-98.16 8.99Q-99.71 8.99-100.97 8.48Q-102.22 7.97-103.10 7.02Q-103.98 6.07-104.46 4.72Q-104.94 3.38-104.94 1.70L-104.94 1.70Q-104.94 0.03-104.46-1.32Q-103.98-2.67-103.10-3.62Q-102.22-4.57-100.97-5.09Q-99.71-5.61-98.16-5.61ZM-98.16 7.05L-98.16 7.05Q-96.06 7.05-95.02 5.64Q-93.99 4.23-93.99 1.71L-93.99 1.71Q-93.99-0.82-95.02-2.24Q-96.06-3.65-98.16-3.65L-98.16-3.65Q-99.22-3.65-100.01-3.29Q-100.79-2.92-101.32-2.24Q-101.84-1.55-102.10-0.55Q-102.36 0.45-102.36 1.71L-102.36 1.71Q-102.36 2.97-102.10 3.97Q-101.84 4.96-101.32 5.64Q-100.79 6.32-100.01 6.68Q-99.22 7.05-98.16 7.05ZM-82.59-5.61L-82.59-5.61Q-81.04-5.61-79.79-5.09Q-78.53-4.57-77.66-3.62Q-76.78-2.67-76.31-1.32Q-75.84 0.03-75.84 1.70L-75.84 1.70Q-75.84 3.38-76.31 4.72Q-76.78 6.07-77.66 7.02Q-78.53 7.97-79.79 8.48Q-81.04 8.99-82.59 8.99L-82.59 8.99Q-84.15 8.99-85.40 8.48Q-86.65 7.97-87.53 7.02Q-88.42 6.07-88.89 4.72Q-89.37 3.38-89.37 1.70L-89.37 1.70Q-89.37 0.03-88.89-1.32Q-88.42-2.67-87.53-3.62Q-86.65-4.57-85.40-5.09Q-84.15-5.61-82.59-5.61ZM-82.59 7.05L-82.59 7.05Q-80.49 7.05-79.46 5.64Q-78.42 4.23-78.42 1.71L-78.42 1.71Q-78.42-0.82-79.46-2.24Q-80.49-3.65-82.59-3.65L-82.59-3.65Q-83.66-3.65-84.44-3.29Q-85.22-2.92-85.75-2.24Q-86.27-1.55-86.53-0.55Q-86.79 0.45-86.79 1.71L-86.79 1.71Q-86.79 2.97-86.53 3.97Q-86.27 4.96-85.75 5.64Q-85.22 6.32-84.44 6.68Q-83.66 7.05-82.59 7.05ZM-64.08-3.96L-64.64-3.05Q-64.81-2.74-65.16-2.74L-65.16-2.74Q-65.37-2.74-65.64-2.89Q-65.90-3.05-66.29-3.24Q-66.67-3.43-67.21-3.59Q-67.74-3.75-68.47-3.75L-68.47-3.75Q-69.10-3.75-69.60-3.59Q-70.10-3.43-70.46-3.15Q-70.82-2.87-71.01-2.50Q-71.20-2.12-71.20-1.69L-71.20-1.69Q-71.20-1.14-70.88-0.78Q-70.57-0.42-70.05-0.15Q-69.53 0.12-68.87 0.32Q-68.21 0.52-67.52 0.75Q-66.83 0.98-66.17 1.26Q-65.51 1.54-64.99 1.96Q-64.48 2.38-64.16 2.99Q-63.85 3.60-63.85 4.46L-63.85 4.46Q-63.85 5.44-64.20 6.27Q-64.55 7.10-65.23 7.71Q-65.92 8.32-66.91 8.67Q-67.91 9.02-69.21 9.02L-69.21 9.02Q-70.69 9.02-71.90 8.54Q-73.10 8.05-73.94 7.30L-73.94 7.30L-73.35 6.35Q-73.24 6.16-73.09 6.07Q-72.93 5.97-72.68 5.97L-72.68 5.97Q-72.43 5.97-72.15 6.16Q-71.87 6.36-71.47 6.60Q-71.07 6.84-70.50 7.03Q-69.94 7.23-69.08 7.23L-69.08 7.23Q-68.35 7.23-67.81 7.04Q-67.26 6.85-66.90 6.53Q-66.53 6.21-66.36 5.79Q-66.18 5.37-66.18 4.89L-66.18 4.89Q-66.18 4.30-66.50 3.92Q-66.81 3.53-67.33 3.26Q-67.85 2.99-68.52 2.78Q-69.18 2.58-69.87 2.36Q-70.57 2.13-71.23 1.84Q-71.90 1.56-72.41 1.12Q-72.93 0.69-73.25 0.05Q-73.56-0.58-73.56-1.49L-73.56-1.49Q-73.56-2.31-73.23-3.06Q-72.89-3.80-72.25-4.37Q-71.60-4.94-70.66-5.27Q-69.73-5.61-68.52-5.61L-68.52-5.61Q-67.12-5.61-66.01-5.17Q-64.90-4.73-64.08-3.96L-64.08-3.96ZM-55.00-5.61L-55.00-5.61Q-53.72-5.61-52.65-5.18Q-51.57-4.76-50.78-3.95Q-50.00-3.15-49.56-1.96Q-49.12-0.78-49.12 0.73L-49.12 0.73Q-49.12 1.32-49.24 1.52Q-49.37 1.71-49.72 1.71L-49.72 1.71L-59.16 1.71Q-59.13 3.06-58.79 4.05Q-58.46 5.04-57.87 5.71Q-57.28 6.37-56.47 6.70Q-55.66 7.03-54.65 7.03L-54.65 7.03Q-53.71 7.03-53.03 6.81Q-52.35 6.60-51.86 6.35Q-51.37 6.09-51.04 5.88Q-50.71 5.66-50.48 5.66L-50.48 5.66Q-50.17 5.66-50.00 5.90L-50.00 5.90L-49.30 6.81Q-49.76 7.37-50.41 7.78Q-51.05 8.19-51.79 8.46Q-52.52 8.73-53.30 8.86Q-54.09 8.99-54.86 8.99L-54.86 8.99Q-56.33 8.99-57.57 8.49Q-58.81 8.00-59.71 7.04Q-60.61 6.08-61.12 4.67Q-61.62 3.25-61.62 1.42L-61.62 1.42Q-61.62-0.07-61.17-1.35Q-60.71-2.64-59.86-3.59Q-59.00-4.53-57.77-5.07Q-56.54-5.61-55.00-5.61ZM-54.94-3.78L-54.94-3.78Q-56.75-3.78-57.78-2.73Q-58.82-1.69-59.07 0.16L-59.07 0.16L-51.36 0.16Q-51.36-0.71-51.60-1.43Q-51.83-2.15-52.30-2.68Q-52.76-3.20-53.42-3.49Q-54.09-3.78-54.94-3.78ZM-40.87-5.39L-38.38-5.39L-38.38 3.66Q-38.38 5.27-37.64 6.15Q-36.90 7.03-35.40 7.03L-35.40 7.03Q-34.31 7.03-33.34 6.51Q-32.37 6.00-31.56 5.07L-31.56 5.07L-31.56-5.39L-29.07-5.39L-29.07 8.80L-30.55 8.80Q-31.09 8.80-31.23 8.28L-31.23 8.28L-31.42 6.75Q-32.35 7.77-33.49 8.40Q-34.64 9.02-36.13 9.02L-36.13 9.02Q-37.29 9.02-38.18 8.63Q-39.07 8.25-39.67 7.55Q-40.27 6.85-40.57 5.86Q-40.87 4.86-40.87 3.66L-40.87 3.66L-40.87-5.39ZM-22.48 13.60L-24.97 13.60L-24.97-5.39L-23.48-5.39Q-22.95-5.39-22.81-4.87L-22.81-4.87L-22.60-3.19Q-21.69-4.29-20.52-4.97Q-19.35-5.64-17.83-5.64L-17.83-5.64Q-16.61-5.64-15.62-5.17Q-14.62-4.70-13.92-3.78Q-13.22-2.87-12.84-1.51Q-12.47-0.15-12.47 1.61L-12.47 1.61Q-12.47 3.18-12.89 4.53Q-13.31 5.88-14.09 6.87Q-14.87 7.86-16.02 8.42Q-17.16 8.99-18.58 8.99L-18.58 8.99Q-19.90 8.99-20.83 8.56Q-21.76 8.12-22.48 7.33L-22.48 7.33L-22.48 13.60ZM-18.65-3.62L-18.65-3.62Q-19.87-3.62-20.79-3.06Q-21.71-2.50-22.48-1.48L-22.48-1.48L-22.48 5.38Q-21.79 6.30-20.97 6.68Q-20.15 7.06-19.14 7.06L-19.14 7.06Q-17.17 7.06-16.11 5.65Q-15.04 4.23-15.04 1.61L-15.04 1.61Q-15.04 0.23-15.29-0.77Q-15.53-1.76-15.99-2.40Q-16.46-3.03-17.13-3.33Q-17.80-3.62-18.65-3.62ZM0.19 9.02L0.19 9.02Q-1.49 9.02-2.39 8.08Q-3.30 7.14-3.30 5.38L-3.30 5.38L-3.30-3.30L-5.00-3.30Q-5.23-3.30-5.38-3.43Q-5.54-3.57-5.54-3.85L-5.54-3.85L-5.54-4.84L-3.21-5.13L-2.64-9.52Q-2.61-9.73-2.46-9.86Q-2.30-9.99-2.06-9.99L-2.06-9.99L-0.80-9.99L-0.80-5.11L3.26-5.11L3.26-3.30L-0.80-3.30L-0.80 5.21Q-0.80 6.11-0.37 6.54Q0.06 6.98 0.75 6.98L0.75 6.98Q1.14 6.98 1.43 6.87Q1.72 6.77 1.93 6.64Q2.14 6.51 2.28 6.41Q2.43 6.30 2.54 6.30L2.54 6.30Q2.74 6.30 2.89 6.54L2.89 6.54L3.62 7.73Q2.98 8.33 2.07 8.68Q1.16 9.02 0.19 9.02ZM12.08-5.61L12.08-5.61Q13.63-5.61 14.88-5.09Q16.14-4.57 17.01-3.62Q17.89-2.67 18.35-1.32Q18.82 0.03 18.82 1.70L18.82 1.70Q18.82 3.38 18.35 4.72Q17.89 6.07 17.01 7.02Q16.14 7.97 14.88 8.48Q13.63 8.99 12.08 8.99L12.08 8.99Q10.52 8.99 9.27 8.48Q8.02 7.97 7.13 7.02Q6.25 6.07 5.78 4.72Q5.30 3.38 5.30 1.70L5.30 1.70Q5.30 0.03 5.78-1.32Q6.25-2.67 7.13-3.62Q8.02-4.57 9.27-5.09Q10.52-5.61 12.08-5.61ZM12.08 7.05L12.08 7.05Q14.18 7.05 15.21 5.64Q16.25 4.23 16.25 1.71L16.25 1.71Q16.25-0.82 15.21-2.24Q14.18-3.65 12.08-3.65L12.08-3.65Q11.01-3.65 10.23-3.29Q9.44-2.92 8.92-2.24Q8.39-1.55 8.13-0.55Q7.88 0.45 7.88 1.71L7.88 1.71Q7.88 2.97 8.13 3.97Q8.39 4.96 8.92 5.64Q9.44 6.32 10.23 6.68Q11.01 7.05 12.08 7.05ZM38.96-11.27L38.96-10.17Q38.96-9.64 38.62-9.30Q38.28-8.96 37.49-8.96L37.49-8.96L31.19-8.96L30.26-3.69Q31.83-4.03 33.16-4.03L33.16-4.03Q34.73-4.03 35.92-3.57Q37.12-3.10 37.93-2.29Q38.75-1.48 39.16-0.37Q39.57 0.73 39.57 2.03L39.57 2.03Q39.57 3.63 39.01 4.92Q38.45 6.21 37.48 7.12Q36.51 8.04 35.19 8.53Q33.87 9.02 32.35 9.02L32.35 9.02Q31.47 9.02 30.65 8.84Q29.84 8.67 29.14 8.38Q28.44 8.08 27.84 7.70Q27.24 7.33 26.78 6.91L26.78 6.91L27.53 5.84Q27.78 5.48 28.20 5.48L28.20 5.48Q28.47 5.48 28.83 5.69Q29.18 5.91 29.69 6.18Q30.19 6.44 30.87 6.66Q31.55 6.88 32.49 6.88L32.49 6.88Q33.54 6.88 34.38 6.54Q35.22 6.21 35.81 5.58Q36.41 4.96 36.73 4.09Q37.05 3.22 37.05 2.15L37.05 2.15Q37.05 1.21 36.78 0.45Q36.51-0.30 35.95-0.84Q35.40-1.37 34.57-1.66Q33.75-1.96 32.64-1.96L32.64-1.96Q31.89-1.96 31.07-1.83Q30.26-1.70 29.39-1.42L29.39-1.42L27.83-1.89L29.45-11.27L38.96-11.27ZM51.44 13.60L48.95 13.60L48.95-5.39L50.44-5.39Q50.97-5.39 51.11-4.87L51.11-4.87L51.32-3.19Q52.23-4.29 53.40-4.97Q54.57-5.64 56.09-5.64L56.09-5.64Q57.31-5.64 58.30-5.17Q59.30-4.70 60.00-3.78Q60.70-2.87 61.08-1.51Q61.45-0.15 61.45 1.61L61.45 1.61Q61.45 3.18 61.03 4.53Q60.61 5.88 59.83 6.87Q59.05 7.86 57.90 8.42Q56.76 8.99 55.34 8.99L55.34 8.99Q54.02 8.99 53.09 8.56Q52.16 8.12 51.44 7.33L51.44 7.33L51.44 13.60ZM55.27-3.62L55.27-3.62Q54.05-3.62 53.13-3.06Q52.21-2.50 51.44-1.48L51.44-1.48L51.44 5.38Q52.13 6.30 52.95 6.68Q53.77 7.06 54.78 7.06L54.78 7.06Q56.75 7.06 57.81 5.65Q58.88 4.23 58.88 1.61L58.88 1.61Q58.88 0.23 58.63-0.77Q58.39-1.76 57.93-2.40Q57.46-3.03 56.79-3.33Q56.12-3.62 55.27-3.62ZM66.90 8.80L64.41 8.80L64.41-11.83L66.90-11.83L66.90-3.48Q67.81-4.45 68.92-5.03Q70.02-5.61 71.46-5.61L71.46-5.61Q72.63-5.61 73.51-5.23Q74.40-4.84 75.00-4.13Q75.59-3.43 75.90-2.43Q76.21-1.44 76.21-0.23L76.21-0.23L76.21 8.80L73.72 8.80L73.72-0.23Q73.72-1.84 72.98-2.73Q72.25-3.62 70.74-3.62L70.74-3.62Q69.63-3.62 68.67-3.09Q67.71-2.56 66.90-1.65L66.90-1.65L66.90 8.80ZM85.72-5.61L85.72-5.61Q87.27-5.61 88.52-5.09Q89.78-4.57 90.65-3.62Q91.53-2.67 91.99-1.32Q92.46 0.03 92.46 1.70L92.46 1.70Q92.46 3.38 91.99 4.72Q91.53 6.07 90.65 7.02Q89.78 7.97 88.52 8.48Q87.27 8.99 85.72 8.99L85.72 8.99Q84.16 8.99 82.91 8.48Q81.66 7.97 80.77 7.02Q79.89 6.07 79.42 4.72Q78.94 3.38 78.94 1.70L78.94 1.70Q78.94 0.03 79.42-1.32Q79.89-2.67 80.77-3.62Q81.66-4.57 82.91-5.09Q84.16-5.61 85.72-5.61ZM85.72 7.05L85.72 7.05Q87.82 7.05 88.85 5.64Q89.89 4.23 89.89 1.71L89.89 1.71Q89.89-0.82 88.85-2.24Q87.82-3.65 85.72-3.65L85.72-3.65Q84.65-3.65 83.87-3.29Q83.08-2.92 82.56-2.24Q82.03-1.55 81.77-0.55Q81.52 0.45 81.52 1.71L81.52 1.71Q81.52 2.97 81.77 3.97Q82.03 4.96 82.56 5.64Q83.08 6.32 83.87 6.68Q84.65 7.05 85.72 7.05ZM99.84 9.02L99.84 9.02Q98.16 9.02 97.26 8.08Q96.36 7.14 96.36 5.38L96.36 5.38L96.36-3.30L94.65-3.30Q94.42-3.30 94.27-3.43Q94.12-3.57 94.12-3.85L94.12-3.85L94.12-4.84L96.44-5.13L97.01-9.52Q97.04-9.73 97.20-9.86Q97.35-9.99 97.59-9.99L97.59-9.99L98.85-9.99L98.85-5.11L102.91-5.11L102.91-3.30L98.85-3.30L98.85 5.21Q98.85 6.11 99.28 6.54Q99.72 6.98 100.40 6.98L100.40 6.98Q100.79 6.98 101.08 6.87Q101.37 6.77 101.58 6.64Q101.79 6.51 101.93 6.41Q102.08 6.30 102.19 6.30L102.19 6.30Q102.39 6.30 102.54 6.54L102.54 6.54L103.27 7.73Q102.63 8.33 101.72 8.68Q100.81 9.02 99.84 9.02ZM111.73-5.61L111.73-5.61Q113.28-5.61 114.53-5.09Q115.79-4.57 116.66-3.62Q117.54-2.67 118.01-1.32Q118.48 0.03 118.48 1.70L118.48 1.70Q118.48 3.38 118.01 4.72Q117.54 6.07 116.66 7.02Q115.79 7.97 114.53 8.48Q113.28 8.99 111.73 8.99L111.73 8.99Q110.17 8.99 108.92 8.48Q107.67 7.97 106.79 7.02Q105.90 6.07 105.43 4.72Q104.95 3.38 104.95 1.70L104.95 1.70Q104.95 0.03 105.43-1.32Q105.90-2.67 106.79-3.62Q107.67-4.57 108.92-5.09Q110.17-5.61 111.73-5.61ZM111.73 7.05L111.73 7.05Q113.83 7.05 114.86 5.64Q115.90 4.23 115.90 1.71L115.90 1.71Q115.90-0.82 114.86-2.24Q113.83-3.65 111.73-3.65L111.73-3.65Q110.66-3.65 109.88-3.29Q109.10-2.92 108.57-2.24Q108.05-1.55 107.79-0.55Q107.53 0.45 107.53 1.71L107.53 1.71Q107.53 2.97 107.79 3.97Q108.05 4.96 108.57 5.64Q109.10 6.32 109.88 6.68Q110.66 7.05 111.73 7.05ZM130.24-3.96L129.68-3.05Q129.51-2.74 129.16-2.74L129.16-2.74Q128.95-2.74 128.68-2.89Q128.42-3.05 128.03-3.24Q127.65-3.43 127.11-3.59Q126.58-3.75 125.85-3.75L125.85-3.75Q125.22-3.75 124.72-3.59Q124.22-3.43 123.86-3.15Q123.50-2.87 123.31-2.50Q123.12-2.12 123.12-1.69L123.12-1.69Q123.12-1.14 123.44-0.78Q123.75-0.42 124.27-0.15Q124.79 0.12 125.45 0.32Q126.11 0.52 126.80 0.75Q127.49 0.98 128.15 1.26Q128.81 1.54 129.33 1.96Q129.84 2.38 130.16 2.99Q130.47 3.60 130.47 4.46L130.47 4.46Q130.47 5.44 130.12 6.27Q129.77 7.10 129.09 7.71Q128.40 8.32 127.41 8.67Q126.41 9.02 125.11 9.02L125.11 9.02Q123.63 9.02 122.42 8.54Q121.22 8.05 120.38 7.30L120.38 7.30L120.97 6.35Q121.08 6.16 121.23 6.07Q121.39 5.97 121.64 5.97L121.64 5.97Q121.89 5.97 122.17 6.16Q122.45 6.36 122.85 6.60Q123.25 6.84 123.82 7.03Q124.38 7.23 125.24 7.23L125.24 7.23Q125.97 7.23 126.51 7.04Q127.06 6.85 127.42 6.53Q127.79 6.21 127.96 5.79Q128.14 5.37 128.14 4.89L128.14 4.89Q128.14 4.30 127.82 3.92Q127.51 3.53 126.99 3.26Q126.47 2.99 125.80 2.78Q125.14 2.58 124.45 2.36Q123.75 2.13 123.09 1.84Q122.42 1.56 121.91 1.12Q121.39 0.69 121.07 0.05Q120.76-0.58 120.76-1.49L120.76-1.49Q120.76-2.31 121.09-3.06Q121.43-3.80 122.07-4.37Q122.72-4.94 123.66-5.27Q124.59-5.61 125.80-5.61L125.80-5.61Q127.20-5.61 128.31-5.17Q129.42-4.73 130.24-3.96L130.24-3.96Z"/></g>
</svg>