<svg width="235" height="88" viewBox="0 0 235 88" fill="none" xmlns="http://www.w3.org/2000/svg">
<path d="M0 52V0H14.72L22.56 21.28C23.04 22.72 23.4933 24.2133 23.92 25.76C24.3467 27.3067 24.8 28.8533 25.28 30.4H25.6C26.08 28.8533 26.5333 27.3067 26.96 25.76C27.3867 24.2133 27.84 22.72 28.32 21.28L35.84 0H50.56V52H38.08V36.64C38.08 35.3067 38.1467 33.84 38.28 32.24C38.4133 30.64 38.56 29 38.72 27.32C38.88 25.64 39.0667 24 39.28 22.4C39.4933 20.8 39.68 19.36 39.84 18.08H39.52L35.2 30.56L28.8 47.76H21.44L15.04 30.56L10.88 18.08H10.56C10.72 19.36 10.9067 20.8 11.12 22.4C11.3333 24 11.52 25.64 11.68 27.32C11.84 29 11.9867 30.64 12.12 32.24C12.2533 33.84 12.32 35.3067 12.32 36.64V52H0ZM62.08 52V0H75.84V19.36H76.16L89.28 0H104.32L88.8 21.12L107.36 52H92.32L80.8 32L75.84 39.04V52H62.08ZM119.84 52V11.52H106.08V0H147.36V11.52H133.6V52H119.84ZM155.04 52V0H188.96V11.52H168.8V21.44H186.08V32.96H168.8V52H155.04ZM205.44 52V34.08L189.76 0H204.48L208.32 10.88C208.96 12.8533 209.6 14.7733 210.24 16.64C210.88 18.5067 211.547 20.4533 212.24 22.48H212.56C213.253 20.4533 213.933 18.5067 214.6 16.64C215.267 14.7733 215.947 12.8533 216.64 10.88L220.48 0H234.88L219.2 34.08V52H205.44Z" fill="white"/>
<path d="M52.5103 71.5781H55.7369C57.2525 71.5781 58.3489 71.8047 59.0259 72.2578C59.703 72.7109 60.0416 73.4271 60.0416 74.4062C60.0416 75.0833 59.8515 75.6432 59.4713 76.0859C59.0963 76.5234 58.5468 76.8073 57.8228 76.9375V77.0156C59.5572 77.3125 60.4244 78.224 60.4244 79.75C60.4244 80.7708 60.078 81.5677 59.3853 82.1406C58.6978 82.7135 57.7343 83 56.4947 83H52.5103V71.5781ZM53.8384 76.4688H56.0259C56.9634 76.4688 57.6379 76.3229 58.0494 76.0312C58.4608 75.7344 58.6666 75.237 58.6666 74.5391C58.6666 73.8984 58.4374 73.4375 57.9791 73.1562C57.5207 72.8698 56.7916 72.7266 55.7916 72.7266H53.8384V76.4688ZM53.8384 77.5938V81.8672H56.2213C57.1431 81.8672 57.8358 81.6901 58.2994 81.3359C58.7681 80.9766 59.0025 80.4167 59.0025 79.6562C59.0025 78.9479 58.7629 78.4271 58.2838 78.0938C57.8098 77.7604 57.0858 77.5938 56.1119 77.5938H53.8384ZM63.9088 74.4375V79.9922C63.9088 80.6901 64.0676 81.2109 64.3853 81.5547C64.703 81.8984 65.2004 82.0703 65.8775 82.0703C66.7733 82.0703 67.427 81.8255 67.8384 81.3359C68.2551 80.8464 68.4634 80.0469 68.4634 78.9375V74.4375H69.7603V83H68.69L68.5025 81.8516H68.4322C68.1666 82.2734 67.7968 82.5964 67.3228 82.8203C66.8541 83.0443 66.3176 83.1562 65.7134 83.1562C64.6718 83.1562 63.8905 82.9089 63.3697 82.4141C62.8541 81.9193 62.5963 81.1276 62.5963 80.0391V74.4375H63.9088ZM71.1588 74.4375H72.5494L74.4244 79.3203C74.8358 80.4349 75.091 81.2396 75.19 81.7344H75.2525C75.3202 81.4688 75.4608 81.0156 75.6744 80.375C75.8931 79.7292 76.6015 77.75 77.7994 74.4375H79.19L75.5103 84.1875C75.1457 85.151 74.7186 85.8333 74.2291 86.2344C73.7447 86.6406 73.1483 86.8438 72.44 86.8438C72.0442 86.8438 71.6535 86.7995 71.2681 86.7109V85.6719C71.5546 85.7344 71.8749 85.7656 72.2291 85.7656C73.1197 85.7656 73.7551 85.2656 74.1353 84.2656L74.6119 83.0469L71.1588 74.4375ZM90.0025 83L89.7447 81.7812H89.6822C89.2551 82.3177 88.828 82.6823 88.4009 82.875C87.9791 83.0625 87.4504 83.1562 86.815 83.1562C85.966 83.1562 85.2994 82.9375 84.815 82.5C84.3358 82.0625 84.0963 81.4401 84.0963 80.6328C84.0963 78.9036 85.4791 77.9974 88.2447 77.9141L89.6978 77.8672V77.3359C89.6978 76.6641 89.552 76.1693 89.2603 75.8516C88.9739 75.5286 88.5129 75.3672 87.8775 75.3672C87.164 75.3672 86.3567 75.5859 85.4556 76.0234L85.0572 75.0312C85.4791 74.8021 85.94 74.6224 86.44 74.4922C86.9452 74.362 87.4504 74.2969 87.9556 74.2969C88.9765 74.2969 89.7317 74.5234 90.2213 74.9766C90.716 75.4297 90.9634 76.1562 90.9634 77.1562V83H90.0025ZM87.0728 82.0859C87.8801 82.0859 88.5129 81.8646 88.9713 81.4219C89.4348 80.9792 89.6666 80.3594 89.6666 79.5625V78.7891L88.3697 78.8438C87.3384 78.8802 86.5936 79.0417 86.1353 79.3281C85.6822 79.6094 85.4556 80.0495 85.4556 80.6484C85.4556 81.1172 85.5963 81.474 85.8775 81.7188C86.164 81.9635 86.5624 82.0859 87.0728 82.0859ZM99.5025 83V77.4609C99.5025 76.763 99.3436 76.2422 99.0259 75.8984C98.7082 75.5547 98.2108 75.3828 97.5338 75.3828C96.6379 75.3828 95.9817 75.625 95.565 76.1094C95.1483 76.5938 94.94 77.3932 94.94 78.5078V83H93.6431V74.4375H94.6978L94.9088 75.6094H94.9713C95.2369 75.1875 95.6093 74.862 96.0884 74.6328C96.5676 74.3984 97.1015 74.2812 97.69 74.2812C98.7213 74.2812 99.4973 74.5312 100.018 75.0312C100.539 75.526 100.799 76.3203 100.799 77.4141V83H99.5025ZM109.299 81.8516H109.229C108.63 82.7214 107.734 83.1562 106.542 83.1562C105.422 83.1562 104.549 82.7734 103.924 82.0078C103.305 81.2422 102.995 80.1536 102.995 78.7422C102.995 77.3307 103.307 76.2344 103.932 75.4531C104.557 74.6719 105.427 74.2812 106.542 74.2812C107.703 74.2812 108.594 74.7031 109.213 75.5469H109.315L109.26 74.9297L109.229 74.3281V70.8438H110.526V83H109.471L109.299 81.8516ZM106.706 82.0703C107.591 82.0703 108.232 81.8307 108.628 81.3516C109.029 80.8672 109.229 80.0885 109.229 79.0156V78.7422C109.229 77.5286 109.026 76.6641 108.62 76.1484C108.219 75.6276 107.575 75.3672 106.69 75.3672C105.93 75.3672 105.346 75.6641 104.94 76.2578C104.539 76.8464 104.338 77.6797 104.338 78.7578C104.338 79.8516 104.539 80.6771 104.94 81.2344C105.341 81.7917 105.93 82.0703 106.706 82.0703ZM122.963 80.6641C122.963 81.4609 122.667 82.0755 122.073 82.5078C121.479 82.9401 120.646 83.1562 119.573 83.1562C118.437 83.1562 117.552 82.9766 116.917 82.6172V81.4141C117.328 81.6224 117.768 81.7865 118.237 81.9062C118.711 82.026 119.167 82.0859 119.604 82.0859C120.281 82.0859 120.802 81.9792 121.167 81.7656C121.531 81.5469 121.713 81.2161 121.713 80.7734C121.713 80.4401 121.568 80.1562 121.276 79.9219C120.989 79.6823 120.427 79.401 119.588 79.0781C118.792 78.7812 118.224 78.5234 117.885 78.3047C117.552 78.0807 117.302 77.8281 117.135 77.5469C116.974 77.2656 116.893 76.9297 116.893 76.5391C116.893 75.8411 117.177 75.2917 117.745 74.8906C118.312 74.4844 119.091 74.2812 120.081 74.2812C121.003 74.2812 121.904 74.4688 122.784 74.8438L122.323 75.8984C121.463 75.5443 120.685 75.3672 119.987 75.3672C119.372 75.3672 118.909 75.4635 118.596 75.6562C118.284 75.849 118.128 76.1146 118.128 76.4531C118.128 76.6823 118.185 76.8776 118.299 77.0391C118.419 77.2005 118.609 77.3542 118.87 77.5C119.13 77.6458 119.63 77.8568 120.37 78.1328C121.385 78.5026 122.07 78.875 122.424 79.25C122.784 79.625 122.963 80.0964 122.963 80.6641ZM128.698 83.1562C127.432 83.1562 126.432 82.7708 125.698 82C124.969 81.2292 124.604 80.1589 124.604 78.7891C124.604 77.4089 124.943 76.3125 125.62 75.5C126.302 74.6875 127.216 74.2812 128.362 74.2812C129.435 74.2812 130.284 74.6354 130.909 75.3438C131.534 76.0469 131.846 76.9766 131.846 78.1328V78.9531H125.948C125.974 79.9583 126.226 80.7214 126.706 81.2422C127.19 81.763 127.87 82.0234 128.745 82.0234C129.667 82.0234 130.578 81.8307 131.479 81.4453V82.6016C131.021 82.7995 130.586 82.9401 130.174 83.0234C129.768 83.112 129.276 83.1562 128.698 83.1562ZM128.346 75.3672C127.659 75.3672 127.109 75.5911 126.698 76.0391C126.292 76.487 126.052 77.1068 125.979 77.8984H130.456C130.456 77.0807 130.273 76.4557 129.909 76.0234C129.544 75.5859 129.023 75.3672 128.346 75.3672ZM135.362 83H134.065V70.8438H135.362V83ZM139.409 83H138.112V70.8438H139.409V83ZM151.838 80.6641C151.838 81.4609 151.542 82.0755 150.948 82.5078C150.354 82.9401 149.521 83.1562 148.448 83.1562C147.312 83.1562 146.427 82.9766 145.792 82.6172V81.4141C146.203 81.6224 146.643 81.7865 147.112 81.9062C147.586 82.026 148.042 82.0859 148.479 82.0859C149.156 82.0859 149.677 81.9792 150.042 81.7656C150.406 81.5469 150.588 81.2161 150.588 80.7734C150.588 80.4401 150.443 80.1562 150.151 79.9219C149.864 79.6823 149.302 79.401 148.463 79.0781C147.667 78.7812 147.099 78.5234 146.76 78.3047C146.427 78.0807 146.177 77.8281 146.01 77.5469C145.849 77.2656 145.768 76.9297 145.768 76.5391C145.768 75.8411 146.052 75.2917 146.62 74.8906C147.187 74.4844 147.966 74.2812 148.956 74.2812C149.878 74.2812 150.779 74.4688 151.659 74.8438L151.198 75.8984C150.338 75.5443 149.56 75.3672 148.862 75.3672C148.247 75.3672 147.784 75.4635 147.471 75.6562C147.159 75.849 147.003 76.1146 147.003 76.4531C147.003 76.6823 147.06 76.8776 147.174 77.0391C147.294 77.2005 147.484 77.3542 147.745 77.5C148.005 77.6458 148.505 77.8568 149.245 78.1328C150.26 78.5026 150.945 78.875 151.299 79.25C151.659 79.625 151.838 80.0964 151.838 80.6641ZM156.721 82.0859C156.95 82.0859 157.172 82.0703 157.385 82.0391C157.599 82.0026 157.768 81.9661 157.893 81.9297V82.9219C157.753 82.9896 157.544 83.0443 157.268 83.0859C156.997 83.1328 156.753 83.1562 156.534 83.1562C154.878 83.1562 154.049 82.2839 154.049 80.5391V75.4453H152.823V74.8203L154.049 74.2812L154.596 72.4531H155.346V74.4375H157.831V75.4453H155.346V80.4844C155.346 81 155.469 81.3958 155.713 81.6719C155.958 81.9479 156.294 82.0859 156.721 82.0859ZM160.831 74.4375V79.9922C160.831 80.6901 160.989 81.2109 161.307 81.5547C161.625 81.8984 162.122 82.0703 162.799 82.0703C163.695 82.0703 164.349 81.8255 164.76 81.3359C165.177 80.8464 165.385 80.0469 165.385 78.9375V74.4375H166.682V83H165.612L165.424 81.8516H165.354C165.088 82.2734 164.719 82.5964 164.245 82.8203C163.776 83.0443 163.239 83.1562 162.635 83.1562C161.594 83.1562 160.812 82.9089 160.292 82.4141C159.776 81.9193 159.518 81.1276 159.518 80.0391V74.4375H160.831ZM178.721 75.4453H176.542V83H175.245V75.4453H173.713V74.8594L175.245 74.3906V73.9141C175.245 71.8099 176.164 70.7578 178.003 70.7578C178.456 70.7578 178.987 70.849 179.596 71.0312L179.26 72.0703C178.76 71.9089 178.333 71.8281 177.979 71.8281C177.489 71.8281 177.128 71.9922 176.893 72.3203C176.659 72.6432 176.542 73.1641 176.542 73.8828V74.4375H178.721V75.4453ZM173.299 75.4453H171.12V83H169.823V75.4453H168.292V74.8594L169.823 74.3906V73.9141C169.823 71.8099 170.742 70.7578 172.581 70.7578C173.034 70.7578 173.565 70.849 174.174 71.0312L173.838 72.0703C173.338 71.9089 172.911 71.8281 172.557 71.8281C172.068 71.8281 171.706 71.9922 171.471 72.3203C171.237 72.6432 171.12 73.1641 171.12 73.8828V74.4375H173.299V75.4453ZM181.471 79.8516H180.651L180.253 71.5781H181.87L181.471 79.8516ZM180.112 82.1719C180.112 81.4635 180.424 81.1094 181.049 81.1094C181.351 81.1094 181.583 81.2005 181.745 81.3828C181.911 81.5651 181.995 81.8281 181.995 82.1719C181.995 82.5052 181.911 82.7656 181.745 82.9531C181.578 83.1354 181.346 83.2266 181.049 83.2266C180.779 83.2266 180.555 83.1458 180.378 82.9844C180.2 82.8177 180.112 82.5469 180.112 82.1719Z" fill="white"/>
</svg>
